<svg xmlns="http://www.w3.org/2000/svg" width="40" height="30" viewBox="0 0 40 30"><style>.a{fill:#0272b6;}</style><path d="M24.9 11.3c-0.4 0.2-0.8 0.3-1.2 0.3 0.4-0.2 0.7-0.6 0.9-1.1 -0.4 0.2-0.8 0.4-1.3 0.5 -0.4-0.4-0.9-0.6-1.5-0.6 -1.1 0-2 0.9-2 2 0 0.2 0 0.3 0.1 0.5 -1.7-0.1-3.2-0.9-4.2-2.1 -0.2 0.3-0.3 0.6-0.3 1 0 0.7 0.4 1.3 0.9 1.7 -0.3 0-0.6-0.1-0.9-0.3 0 0 0 0 0 0 0 1 0.7 1.8 1.6 2 -0.2 0-0.3 0.1-0.5 0.1 -0.1 0-0.3 0-0.4 0 0.3 0.8 1 1.4 1.9 1.4 -0.7 0.5-1.6 0.9-2.5 0.9 -0.2 0-0.3 0-0.5 0 0.9 0.6 2 0.9 3.1 0.9 3.7 0 5.7-3.1 5.7-5.7 0-0.1 0-0.2 0-0.3C24.3 12 24.7 11.7 24.9 11.3" class="a"/><path d="M20 3.3c6.1 0 11 4.9 11 11 0 6.1-4.9 11-11 11 -2.5 0-4.8-0.8-6.6-2.2l-4.4 2.2 2.2-4.4C9.8 19.1 9 16.8 9 14.3 9 8.3 13.9 3.3 20 3.3M20 2.3c-6.6 0-12 5.4-12 12 0 2.4 0.7 4.7 2 6.7l-1.9 3.9C7.9 25.3 8 25.7 8.3 26c0.2 0.2 0.4 0.3 0.7 0.3 0.2 0 0.3 0 0.4-0.1l3.9-1.9c2 1.3 4.3 2 6.7 2 6.6 0 12-5.4 12-12C32 7.7 26.6 2.3 20 2.3" class="a"/><polyline points="40 35.3 0 35.3 0 -4.7 40 -4.7 " fill="none"/></svg>
