<svg xmlns="http://www.w3.org/2000/svg" width="40" height="30" viewBox="0 0 40 30"><style>.a{clip-path:url(#SVGID_2_);}.b{fill:#FFF;}</style><defs><rect y="-5.7" width="40" height="40"/></defs><g class="a"><path d="M8 21.5c-2.1 0-4-1.3-4.7-3.3C2.3 15.6 3.7 12.7 6.3 11.8l6-2.2 8.6-7.4c0.3-0.2 0.6-0.4 1-0.4 0.6 0 1.2 0.4 1.4 1l5.2 14.3c0.2 0.5 0.1 1-0.2 1.4 -0.3 0.4-0.7 0.6-1.2 0.6l-11.3-0.2 -6 2.2C9.1 21.4 8.5 21.5 8 21.5zM21.8 2.9c-0.1 0-0.2 0-0.3 0.1l-8.8 7.5 -6.1 2.2c-2.1 0.7-3.2 3-2.4 5.1 0.6 1.6 2.1 2.6 3.8 2.6 0.5 0 0.9-0.1 1.4-0.2l6.2-2.2L27 18.2h0c0.2 0 0.3-0.1 0.4-0.2 0.1-0.1 0.1-0.3 0.1-0.5L22.3 3.2C22.2 3 22 2.9 21.8 2.9z" class="b"/></g><g class="a"><rect x="9.3" y="13.8" transform="matrix(0.3386 0.9409 -0.9409 0.3386 22.7379 -3.8059)" width="9.5" height="1" class="b"/></g><g class="a"><path d="M7 15.7c-0.2 0-0.4-0.1-0.5-0.3 -0.1-0.3 0-0.5 0.3-0.6l2.8-1c0.3-0.1 0.5 0 0.6 0.3 0.1 0.3 0 0.5-0.3 0.6l-2.8 1C7.1 15.7 7 15.7 7 15.7z" class="b"/></g><g class="a"><path d="M29.6 9.2c-0.2 0-0.4-0.1-0.5-0.3 -0.1-0.3 0-0.5 0.3-0.6L34.1 6.5c0.3-0.1 0.5 0 0.6 0.3 0.1 0.3 0 0.5-0.3 0.6l-4.7 1.7C29.7 9.2 29.7 9.2 29.6 9.2z" class="b"/></g><g class="a"><path d="M7.7 17.6c-0.2 0-0.4-0.1-0.5-0.3 -0.1-0.3 0-0.5 0.3-0.6l2.8-1c0.3-0.1 0.5 0 0.6 0.3 0.1 0.3 0 0.5-0.3 0.6l-2.8 1C7.8 17.6 7.7 17.6 7.7 17.6z" class="b"/></g><g class="a"><path d="M15.1 28.7c-0.8 0-1.5-0.3-2-1l-4.8-6.4 0.8-0.6 4.8 6.4c0.5 0.7 1.4 0.8 2.1 0.3 0.4-0.3 0.6-0.6 0.7-1s0-0.8-0.3-1.1L12.5 20.1l0.8-0.6 3.8 5.1c0.4 0.5 0.6 1.2 0.5 1.9s-0.4 1.2-1 1.6C16.2 28.5 15.6 28.7 15.1 28.7z" class="b"/></g><g class="a"><path d="M26.4 13l-0.3-0.9 1.4-0.5 -1.4-3.8 -1.4 0.5 -0.3-0.9 1.8-0.7c0.1 0 0.3 0 0.4 0s0.2 0.2 0.3 0.3l1.7 4.7c0.1 0.3 0 0.5-0.3 0.6L26.4 13z" class="b"/></g><g class="a"><path d="M28.1 4.9c-0.1 0-0.3-0.1-0.4-0.2 -0.2-0.2-0.2-0.5 0.1-0.7l3.8-3.3c0.2-0.2 0.5-0.2 0.7 0.1C32.4 1.1 32.4 1.4 32.2 1.6l-3.8 3.3C28.3 4.9 28.2 4.9 28.1 4.9z" class="b"/></g><g class="a"><path d="M36.1 13.5c0 0 0 0 0 0l-5-0.1c-0.3 0-0.5-0.2-0.5-0.5 0-0.3 0.2-0.5 0.5-0.5l5 0.1c0.3 0 0.5 0.2 0.5 0.5C36.6 13.3 36.4 13.5 36.1 13.5z" class="b"/></g></svg>
