<svg xmlns="http://www.w3.org/2000/svg" width="40" height="30" viewBox="0 0 40 30"><style>.a{clip-path:url(#SVGID_2_);fill:none;stroke:#FFF;}</style><defs><rect y="-4.7" width="40" height="40"/></defs><path d="M20 3.3c6.1 0 11 4.9 11 11 0 6.1-4.9 11-11 11 -2.5 0-4.8-0.8-6.6-2.2l-4.4 2.2 2.2-4.4C9.8 19.1 9 16.8 9 14.3 9 8.3 13.9 3.3 20 3.3M20 2.3c-6.6 0-12 5.4-12 12 0 2.4 0.7 4.7 2 6.7l-1.9 3.9C7.9 25.3 8 25.7 8.3 26c0.2 0.2 0.4 0.3 0.7 0.3 0.2 0 0.3 0 0.4-0.1l3.9-1.9c2 1.3 4.3 2 6.7 2 6.6 0 12-5.4 12-12C32 7.7 26.6 2.3 20 2.3" style="clip-path:url(#SVGID_2_);fill:#FFF"/><path d="M25.6 18.1H14.4c-0.5 0-0.9-0.4-0.9-0.9V11.4c0-0.5 0.4-0.9 0.9-0.9h5.3 5.9c0.5 0 0.9 0.4 0.9 0.9v1.9 3.9C26.5 17.7 26.1 18.1 25.6 18.1z" class="a"/><polyline points="26.3 10.8 21.5 14 20 15 13.7 10.9 " class="a"/></svg>
