<?xml version="1.0" encoding="UTF-8" standalone="no"?>
<svg width="21px" height="21px" viewBox="0 0 21 21" version="1.1" xmlns="http://www.w3.org/2000/svg" xmlns:xlink="http://www.w3.org/1999/xlink">
    <!-- Generator: Sketch 3.8.3 (29802) - http://www.bohemiancoding.com/sketch -->
    <title>Shape</title>
    <desc>Created with Sketch.</desc>
    <defs></defs>
    <g id="1" stroke="none" stroke-width="1" fill="none" fill-rule="evenodd" opacity="0.8">
        <g id="AO-Tweaks" transform="translate(-820.000000, -8677.000000)" fill="#FFFFFF">
            <g id="Footer" transform="translate(-140.000000, 8018.000000)">
                <path d="M970.389838,659.204082 C964.773458,659.204292 960.204292,663.773281 960.204082,669.389838 C960.204292,675.006395 964.773458,679.575594 970.389838,679.575594 C976.006218,679.575594 980.575383,675.006395 980.575594,669.389838 C980.575383,663.773281 976.006218,659.204292 970.389838,659.204082 L970.389838,659.204082 Z M977.091463,664.012082 C978.25298,665.453514 978.959807,667.274924 978.992585,669.258129 C978.605973,669.179861 976.968335,668.873102 975.011532,668.873102 C974.380346,668.873102 973.715962,668.905292 973.049896,668.987137 C972.993796,668.8508 972.937064,668.713621 972.878442,668.576021 C972.705307,668.169112 972.519776,667.76557 972.32647,667.36855 C975.337211,666.126154 976.790788,664.401948 977.091463,664.012082 L977.091463,664.012082 Z M970.389838,660.798052 C972.559908,660.798052 974.543816,661.605767 976.059167,662.935899 C975.819005,663.263909 974.518392,664.891332 971.614809,665.990869 C970.271122,663.529851 968.799265,661.493415 968.449213,661.020231 C969.073256,660.875268 969.722512,660.798052 970.389838,660.798052 L970.389838,660.798052 Z M966.69349,661.634171 C966.990173,662.042763 968.463081,664.10108 969.841437,666.54253 C966.142148,667.515828 962.856786,667.579789 962.064232,667.579789 L961.980186,667.579789 C962.549388,664.950875 964.323601,662.766319 966.69349,661.634171 L966.69349,661.634171 Z M961.784568,669.403093 C961.784568,669.332399 961.786249,669.261495 961.78835,669.190591 C961.839829,669.191433 961.91526,669.192274 962.014014,669.192274 C963.0814,669.192274 966.788252,669.103276 970.607937,667.967972 C970.839694,668.422431 971.060735,668.883201 971.265388,669.34355 C971.169785,669.371323 971.074183,669.399516 970.979631,669.430023 C966.679203,670.821171 964.314566,674.503124 963.951067,675.10465 C962.603808,673.58474 961.784568,671.588279 961.784568,669.403093 L961.784568,669.403093 Z M970.389838,678.008344 C968.415385,678.008344 966.595157,677.338859 965.141369,676.21681 C965.386994,675.734159 967.170872,672.517184 971.884387,670.874401 C971.887749,670.873349 971.891111,670.872087 971.894263,670.870824 C973.07532,673.952304 973.576025,676.538298 973.714071,677.33928 C972.690809,677.769964 971.567533,678.008344 970.389838,678.008344 L970.389838,678.008344 Z M975.26325,676.491169 C975.147897,675.828417 974.684383,673.40464 973.613846,670.448767 C974.214355,670.355772 974.798685,670.318952 975.346246,670.318952 C977.144622,670.318742 978.551554,670.713026 978.878493,670.812544 C978.48978,673.160789 977.147564,675.191334 975.26325,676.491169 L975.26325,676.491169 Z" id="Shape"></path>
            </g>
        </g>
    </g>
</svg>