<?xml version="1.0" encoding="UTF-8" standalone="no"?>
<svg width="20px" height="17px" viewBox="0 0 20 17" version="1.1" xmlns="http://www.w3.org/2000/svg" xmlns:xlink="http://www.w3.org/1999/xlink">
    <!-- Generator: Sketch 3.7.2 (28276) - http://www.bohemiancoding.com/sketch -->
    <title>twitter-4-icon</title>
    <desc>Created with Sketch.</desc>
    <defs></defs>
    <g id="1" stroke="none" stroke-width="1" fill="none" fill-rule="evenodd" opacity="0.8">
        <g id="Final-Design-New-Copy-4-21" transform="translate(-642.000000, -9045.000000)" fill="#FFFFFF">
            <g id="Footer" transform="translate(-140.000000, 8382.000000)">
                <path d="M799.996302,667.064237 C800.254622,672.850608 795.940676,679.3 788.303011,679.3 C785.97813,679.3 783.816852,678.619757 782,677.448706 C784.1785,677.707026 786.356999,677.104279 788.087744,675.743793 C786.288114,675.70935 784.764025,674.521078 784.247385,672.88505 C784.893185,673.0056 785.530375,672.971157 786.10729,672.816165 C784.126836,672.420074 782.76635,670.637665 782.809403,668.726096 C783.360486,669.03608 783.997676,669.216904 784.669308,669.242736 C782.835235,668.020021 782.318595,665.600423 783.394929,663.749128 C785.418436,666.246223 788.449392,667.88225 791.867829,668.054464 C791.265082,665.479873 793.219704,663 795.871791,663 C797.051453,663 798.127787,663.499419 798.876915,664.300211 C799.815478,664.119387 800.693767,663.77496 801.485948,663.301373 C801.175964,664.265769 800.530164,665.066561 799.677707,665.574591 C800.512942,665.471263 801.305124,665.255996 802.037031,664.92879 C801.494559,665.764025 800.797095,666.487322 799.996302,667.064237 L799.996302,667.064237 Z" id="twitter-4-icon"></path>
            </g>
        </g>
    </g>
</svg>