<?xml version="1.0" encoding="UTF-8" standalone="no"?>
<svg width="22px" height="16px" viewBox="0 0 22 16" version="1.1" xmlns="http://www.w3.org/2000/svg" xmlns:xlink="http://www.w3.org/1999/xlink">
    <!-- Generator: Sketch 3.7.2 (28276) - http://www.bohemiancoding.com/sketch -->
    <title>Shape</title>
    <desc>Created with Sketch.</desc>
    <defs></defs>
    <g id="1" stroke="none" stroke-width="1" fill="none" fill-rule="evenodd" opacity="0.8">
        <g id="Final-Design-New-Copy-4-21" transform="translate(-762.000000, -9044.000000)" fill="#FFFFFF">
            <g id="Footer" transform="translate(-140.000000, 8382.000000)">
                <path d="M923.305024,665.305331 C923.042338,664.163951 922.108341,663.321357 920.984627,663.19539 C918.321662,662.89814 915.627206,662.896604 912.944271,662.89814 C910.261336,662.896604 907.565343,662.89814 904.902378,663.19539 C903.778664,663.321357 902.845436,664.163951 902.58275,665.305331 C902.207922,666.932143 902.204082,668.707197 902.204082,670.381631 C902.204082,672.056066 902.204082,673.830351 902.577373,675.456396 C902.840827,676.597776 903.774056,677.44037 904.89777,677.566336 C907.560735,677.863587 910.255959,677.865123 912.938126,677.863587 C915.621829,677.865123 918.317054,677.863587 920.97925,677.566336 C922.103733,677.44037 923.037729,676.598544 923.299647,675.456396 C923.673707,673.830351 923.675243,672.055297 923.675243,670.381631 C923.676011,668.707197 923.679083,666.932143 923.305024,665.305331 L923.305024,665.305331 Z M910.169165,673.71437 L910.169165,666.613387 C912.444245,667.800852 914.705499,668.980637 916.995941,670.175015 C914.712412,671.358641 912.451158,672.530745 910.169165,673.71437 L910.169165,673.71437 Z" id="Shape"></path>
            </g>
        </g>
    </g>
</svg>