<?xml version="1.0" encoding="UTF-8" standalone="no"?>
<svg width="107px" height="38px" viewBox="0 0 107 38" version="1.1" xmlns="http://www.w3.org/2000/svg" xmlns:xlink="http://www.w3.org/1999/xlink">
    <!-- Generator: Sketch 3.7 (28169) - http://www.bohemiancoding.com/sketch -->
    <title>Layer_1</title>
    <desc>Created with Sketch.</desc>
    <defs></defs>
    <g id="Page-1" stroke="none" stroke-width="1" fill="none" fill-rule="evenodd">
        <g id="comcast-logo">
            <g id="Layer_1">
                <path d="M23.6010201,22.2571429 C19.3349859,22.2571429 15.8639317,25.7644343 15.8639317,30.0771086 C15.8639317,34.3889143 19.3349859,37.8988114 23.6010201,37.8988114 C27.8679137,37.8988114 31.3385382,34.3889143 31.3385382,30.0771086 C31.3385382,25.7644343 27.8679137,22.2571429 23.6010201,22.2571429 M23.6010201,36.3586171 C20.1742269,36.3586171 17.3851365,33.5396686 17.3851365,30.0771086 C17.3851365,26.6156343 20.1742269,23.7973371 23.6010201,23.7973371 C27.0286727,23.7973371 29.8173333,26.6156343 29.8173333,30.0771086 C29.8173333,33.5394514 27.0286727,36.3586171 23.6010201,36.3586171" id="Shape" fill="#FFFFFF"></path>
                <path d="M90.3196024,30.1776457 C89.9034197,29.9570286 87.3788213,28.6420114 87.0148494,28.4515771 C85.691745,27.7686629 85.220988,27.1626171 85.220988,26.13792 C85.220988,24.7156343 86.3773614,23.7960343 88.1705783,23.7960343 C89.224249,23.7960343 90.2420382,24.2644114 90.8378434,24.6035886 C90.946992,24.6630857 91.0746185,24.6965257 91.2080462,24.6965257 C91.6268072,24.6965257 91.9684337,24.3521371 91.9684337,23.9284914 C91.9684337,23.6442514 91.8148092,23.3962743 91.587488,23.2625143 C90.8359096,22.8388686 89.5529839,22.2569257 88.1707932,22.2569257 C85.5370462,22.2569257 83.6982791,23.8542286 83.6982791,26.13792 C83.6982791,28.1907886 85.0327711,29.15816 86.3386867,29.8328229 C86.7037329,30.0210857 89.2586265,31.3523886 89.6421506,31.5547657 C90.6513454,32.0900229 91.208261,32.88976 91.208261,33.8119657 C91.208261,35.0470743 90.1739277,36.35992 88.2563072,36.35992 C86.393261,36.35992 84.9455382,35.09528 84.5463293,34.7072457 L84.4279418,34.5923771 L83.3003594,35.6296686 L83.4337871,35.7619086 C83.9331205,36.2637257 85.7602851,37.8990286 88.2560924,37.8990286 C91.0561406,37.8990286 92.729251,35.8201029 92.729251,33.8119657 C92.729251,32.3108571 91.8517651,30.9860686 90.3196024,30.1776457" id="Shape" fill="#FFFFFF"></path>
                <path d="M7.73751807,23.7973371 C9.39773695,23.7973371 10.9604096,24.4505029 12.1320382,25.6358857 C12.4102811,25.9157829 12.9336787,25.9157829 13.2089137,25.6358857 C13.3532992,25.4917029 13.4321526,25.2986629 13.4321526,25.09216 C13.4321526,24.8873943 13.3532992,24.6921829 13.2089137,24.5493029 L13.1165241,24.4526743 C11.6662229,23.0369029 9.75526305,22.2569257 7.73751807,22.2569257 C3.47148394,22.2571429 0,25.7644343 0,30.0771086 C0,34.3889143 3.47148394,37.8988114 7.73751807,37.8988114 C9.98903012,37.8988114 12.0179478,36.9212343 13.4312932,35.3647543 L12.3557068,34.2755657 C11.2163072,35.5530171 9.56812048,36.3584 7.73751807,36.3584 C4.30986546,36.3584 1.52163454,33.5394514 1.52163454,30.0768914 C1.52163454,26.6156343 4.30986546,23.7973371 7.73751807,23.7973371" id="Shape" fill="#FFFFFF"></path>
                <path d="M60.1913675,23.7973371 C61.8511566,23.7973371 63.4129699,24.4505029 64.5854578,25.6358857 C64.8641305,25.9157829 65.3881727,25.9157829 65.6631928,25.6358857 C65.8067189,25.4917029 65.8872912,25.2986629 65.8872912,25.09216 C65.8872912,24.8873943 65.8067189,24.6921829 65.6631928,24.5493029 L65.5695141,24.4526743 C64.1196426,23.0369029 62.2084679,22.2569257 60.1913675,22.2569257 C55.9249036,22.2569257 52.45299,25.7644343 52.45299,30.0771086 C52.45299,34.3889143 55.9246888,37.8988114 60.1913675,37.8988114 C62.4424498,37.8988114 64.470508,36.9212343 65.886002,35.3647543 L64.8086968,34.2755657 C63.6701566,35.5530171 62.0213253,36.3584 60.1913675,36.3584 C56.7628554,36.3584 53.9746245,33.5394514 53.9746245,30.0768914 C53.9746245,26.6156343 56.7628554,23.7973371 60.1913675,23.7973371" id="Shape" fill="#FFFFFF"></path>
                <path d="M47.0827932,22.2571429 C46.7966004,22.2571429 46.5514458,22.4334629 46.4483133,22.6838286 L41.8967309,33.9943657 L37.3432149,22.6838286 C37.2402972,22.4334629 36.9949277,22.2571429 36.7091647,22.2571429 C36.3746285,22.2571429 36.0963855,22.49752 36.0351506,22.8178057 L33.4493173,37.0656343 C33.4409378,37.1105829 33.4349217,37.1572686 33.4349217,37.2056914 C33.4349217,37.5891657 33.7438896,37.8990286 34.1229016,37.8990286 C34.4563635,37.8990286 34.7354659,37.6573486 34.7962711,37.3370629 L36.9596908,25.41896 L41.2573092,36.0897943 C41.3576486,36.3479771 41.6068855,36.5290743 41.8967309,36.52864 C42.1863614,36.5290743 42.4338795,36.3479771 42.5346486,36.0897943 L46.8318373,25.41896 L49.0820602,37.81304 L50.4777871,37.81304 L47.7572369,22.8178057 C47.6955723,22.4973029 47.4168996,22.2571429 47.0827932,22.2571429" id="Shape" fill="#FFFFFF"></path>
                <path d="M74.5948996,22.2571429 C74.3052691,22.25584 74.0564618,22.43824 73.9556928,22.6953371 L68.2253916,36.9351314 C68.1910141,37.0182971 68.1716767,37.1094971 68.1716767,37.2052571 C68.1716767,37.5891657 68.4793554,37.8990286 68.8581526,37.8990286 C69.1482129,37.8990286 69.3961606,37.7170629 69.4973594,37.4593143 L71.6741004,32.0494171 L77.5172028,32.0494171 L79.8378996,37.81304 L81.3217189,37.81304 L75.2334618,22.6953371 C75.1329076,22.4380229 74.8849598,22.2556229 74.5948996,22.2571429 L74.5948996,22.2571429 Z M72.2939699,30.5096571 L74.5948996,24.7909829 L76.8975482,30.5096571 L72.2939699,30.5096571 L72.2939699,30.5096571 Z" id="Shape" fill="#FFFFFF"></path>
                <path d="M103.953938,22.3405257 L95.3389337,22.3405257 C94.9193133,22.3405257 94.5785462,22.6849143 94.5785462,23.1098629 C94.5785462,23.5335086 94.9193133,23.8778971 95.3389337,23.8778971 L98.9500763,23.8778971 L98.9500763,37.8128229 L100.345803,37.8128229 L100.345803,23.8778971 L103.953938,23.8778971 C104.373129,23.8778971 104.717333,23.5335086 104.717333,23.1098629 C104.717118,22.6849143 104.373129,22.3405257 103.953938,22.3405257" id="Shape" fill="#FFFFFF"></path>
                <polygon id="Shape" fill="#FFFFFF" points="64.8516687 7.40609143 64.838992 7.34789714 64.8284639 7.27710857 64.816002 7.20632 64.816002 7.14834286 64.8033253 7.07690286 64.7809799 7.00654857 64.7698072 6.94813714 64.7567008 6.87756571 64.7332811 6.81828571 64.7223233 6.74619429 64.6995482 6.67584 64.6879458 6.61721143 64.664741 6.54859429 64.641751 6.48757714 64.6174719 6.41744 64.5951265 6.35859429 64.5598896 6.28737143 64.5360402 6.22961143 64.5132651 6.16946286 64.4780281 6.09889143 64.4550382 6.04048 64.4215201 5.98358857 64.384994 5.92257143 64.349757 5.85308571 64.3145201 5.79358857 64.2799277 5.73344 64.2451205 5.67524571 64.2111727 5.6164 64.163259 5.54669714 64.1293112 5.49936 64.1168494 5.48741714 64.1054618 5.46374857 64.0940743 5.43942857 64.0702249 5.41619429 64.0584076 5.40425143 64.034988 5.38145143 64.0244598 5.35669714 64.0006104 5.33389714 63.9877189 5.31109714 63.9660181 5.27570286 63.941739 5.25116571 63.9200382 5.2288 63.9071466 5.20491429 63.8830823 5.18124571 63.8607369 5.15757714 63.8368876 5.12261714 63.8020803 5.08570286 63.7681325 5.05313143 63.7320361 5.01578286 63.6983032 4.98017143 63.674239 4.94586286 63.6383574 4.91068571 63.6044096 4.87420571 63.5696024 4.83989714 63.533506 4.81731429 63.4995582 4.78170286 63.4634618 4.75673143 63.4297289 4.72242286 63.3949217 4.69766857 63.3596847 4.66336 63.3248775 4.63969143 63.2773936 4.59170286 63.2314137 4.55696 63.1847892 4.53350857 63.1370904 4.49681143 63.0911104 4.46358857 63.0436265 4.42624 62.9972169 4.40344 62.9514518 4.36913143 62.905257 4.34524571 62.8463855 4.31093714 62.7995462 4.28553143 62.7537811 4.26251429 62.6953394 4.22820571 62.6485 4.20366857 62.6023052 4.18 62.5434337 4.15698286 62.497239 4.13288 62.4385823 4.10899429 62.3923876 4.08532571 62.3337309 4.06296 62.2752892 4.05014857 62.2286647 4.02843429 62.1708675 4.00302857 62.1128554 3.99043429 62.0533394 3.96741714 62.0071446 3.95547429 61.9497771 3.94418286 61.8909056 3.92116571 61.8309598 3.90965714 61.7755261 3.89749714 61.7164398 3.88468571 61.6571386 3.87404571 61.552502 3.84950857 61.4603273 3.83843429 61.3550462 3.82670857 61.2611526 3.81563429 61.1569458 3.80412571 61.0639116 3.79153143 60.9698032 3.79153143 60.8653815 3.79153143 60.7725622 3.79153143 60.6795281 3.79153143 60.5736024 3.79153143 59.5955622 3.86318857 59.3617952 2.97833143 59.3280622 2.88430857 59.3042129 2.80157714 59.293255 2.75532571 59.2681165 2.69604571 59.2575884 2.64762286 59.2459859 2.61331429 59.2339538 2.57857143 59.2219217 2.55425143 59.210749 2.51950857 59.1759418 2.46022857 59.1417791 2.36512 59.1061124 2.28238857 59.0603474 2.18923429 59.0122189 2.10650286 58.9673133 2.02377143 58.9185402 1.94104 58.8723454 1.86048 58.8154076 1.77774857 58.7687831 1.69501714 58.7088373 1.61228571 58.6516847 1.54149714 58.5945321 1.45963429 58.5350161 1.38884571 58.4649719 1.31849143 58.4061004 1.24813714 58.3377751 1.17843429 58.2670863 1.10634286 58.1959679 1.04749714 58.125494 0.988 58.0449217 0.917211429 57.9757369 0.86032 57.8938755 0.800171429 57.8240462 0.752617143 57.7434739 0.693771429 57.662257 0.634708571 57.5799659 0.589325714 57.4985341 0.541554286 57.4035663 0.494 57.3238534 0.446445714 57.2299598 0.411268571 57.1476687 0.365017143 57.0900863 0.340045714 57.0561386 0.328537143 57.0191827 0.305737143 56.9738474 0.29336 56.937751 0.282285714 56.8926305 0.270994286 56.8571787 0.245805714 56.8103394 0.235382857 56.7755321 0.223005714 56.739006 0.212365714 56.6936707 0.200422857 56.6597229 0.187394286 56.6118092 0.175885714 56.5782912 0.163291429 56.5308072 0.152651429 56.496 0.140274286 56.4366988 0.11704 56.379761 0.105531429 56.3200301 0.0931542857 56.2504157 0.0825142857 56.1926185 0.06992 56.123004 0.0575428571 56.0641325 0.0469028571 56.0063353 0.0343085714 55.935002 0.0223657143 55.8787088 0.0223657143 55.8082349 0.0112914286 55.7512972 0.0112914286 55.6915663 0 55.6217369 0 55.5639398 0 55.4934659 0 55.4350241 0 55.3641205 0 55.306753 0 55.2367088 0.0112914286 55.1784819 0.0112914286 55.1204699 0.0223657143 55.0510703 0.0223657143 54.9919839 0.0343085714 54.9234438 0.0469028571 54.8639277 0.0575428571 54.8057008 0.06992 54.7358715 0.0825142857 54.678504 0.0931542857 54.6196325 0.105531429 54.5491586 0.11704 54.5029639 0.140274286 54.4922209 0.140274286 54.4668675 0.140274286 54.4434478 0.152651429 54.4213173 0.152651429 54.3981124 0.163291429 54.3751225 0.175885714 54.3635201 0.175885714 54.3411747 0.187394286 54.3166807 0.187394286 54.293261 0.200422857 54.2689819 0.200422857 54.2472811 0.212365714 54.2227871 0.223005714 54.1976486 0.223005714 54.1531727 0.245805714 54.0371486 0.29336 53.9441145 0.328537143 53.8491466 0.365017143 53.7683594 0.411268571 53.6759699 0.458388571 53.593249 0.50464 53.5008594 0.552194286 53.4194277 0.600834286 53.3373514 0.659462857 53.2559197 0.706365714 53.1749177 0.76456 53.0930562 0.822754286 53.0111948 0.882034286 52.3483534 1.41338286 51.6829337 0.882034286 51.6012871 0.822754286 51.5323173 0.76456 51.4500261 0.706365714 51.3675201 0.659462857 51.2869478 0.600834286 51.2063755 0.552194286 51.1133414 0.50464 51.0304056 0.458388571 50.9367269 0.411268571 50.8552952 0.365017143 50.7633353 0.328537143 50.6692269 0.29336 50.5411707 0.235382857 50.4820843 0.223005714 50.4704819 0.212365714 50.4599538 0.212365714 50.4483514 0.212365714 50.4249317 0.200422857 50.4135442 0.200422857 50.3907691 0.187394286 50.3662751 0.187394286 50.3546727 0.175885714 50.3316827 0.175885714 50.3076185 0.163291429 50.2848434 0.163291429 50.2612088 0.152651429 50.2388635 0.140274286 50.2139398 0.140274286 50.2014779 0.140274286 50.1449699 0.11704 50.0880321 0.105531429 50.0278715 0.0931542857 49.9698594 0.0825142857 49.9000301 0.06992 49.8407289 0.0575428571 49.7713293 0.0469028571 49.7128876 0.0343085714 49.6550904 0.0223657143 49.5850462 0.0223657143 49.5268193 0.0112914286 49.45699 0.0112914286 49.4000522 0 49.3398916 0 49.2702771 0 49.2133394 0 49.14351 0 49.0846386 0 49.0148092 0 48.9559378 0.0112914286 48.8871827 0.0112914286 48.8276667 0.0223657143 48.7696546 0.0223657143 48.700255 0.0343085714 48.6415984 0.0469028571 48.5715542 0.0575428571 48.513757 0.06992 48.455745 0.0825142857 48.3844116 0.0931542857 48.3266145 0.105531429 48.267743 0.11704 48.1992028 0.140274286 48.1631064 0.152651429 48.1293735 0.163291429 48.0814598 0.175885714 48.0468675 0.187394286 48.0131345 0.200422857 47.9658655 0.212365714 47.9306285 0.223005714 47.8953916 0.235382857 47.8496265 0.245805714 47.8148193 0.270994286 47.7666908 0.282285714 47.7318835 0.29336 47.6856888 0.316377143 47.6508815 0.328537143 47.604257 0.352857143 47.5578474 0.365017143 47.4648133 0.411268571 47.3823072 0.458388571 47.2892731 0.50464 47.2074116 0.552194286 47.1264096 0.600834286 47.0451928 0.647085714 46.9641908 0.706365714 46.881255 0.752617143 46.800253 0.810377143 46.7304237 0.870091429 46.6494217 0.928285714 46.5780884 0.988 46.508259 1.05857143 46.4397189 1.11785143 46.369245 1.18864 46.2992008 1.25899429 46.2298012 1.33 46.1722189 1.39992 46.1122731 1.47157714 46.0557651 1.54149714 45.9968936 1.62422857 45.9371627 1.69501714 45.8802249 1.77774857 45.8329558 1.86048 45.786761 1.94104 45.7283193 2.02377143 45.6930823 2.10650286 45.646243 2.18923429 45.6000482 2.28238857 45.5643815 2.36512 45.530004 2.46022857 45.4954116 2.51950857 45.4846687 2.55425143 45.4728514 2.57857143 45.459745 2.61331429 45.4477129 2.64762286 45.4380442 2.69604571 45.4129056 2.75532571 45.4010884 2.80157714 45.3800321 2.88430857 45.3430763 2.97833143 45.1114578 3.86318857 44.1312691 3.80412571 44.0390944 3.79153143 43.934243 3.79153143 43.8405643 3.79153143 43.7473153 3.79153143 43.6426787 3.80412571 43.5483554 3.80412571 43.455751 3.81563429 43.3511145 3.82670857 43.2574357 3.83843429 43.1641867 3.84950857 43.0485924 3.87404571 42.977259 3.88468571 42.9209659 3.89749714 42.8610201 3.90965714 42.8023635 3.93224 42.7563835 3.94418286 42.6977269 3.95547429 42.6397149 3.98022857 42.581488 3.99043429 42.535508 4.01584 42.4757771 4.02843429 42.430012 4.05014857 42.372 4.07425143 42.313988 4.08532571 42.266504 4.10899429 42.2080622 4.13288 42.1618675 4.15698286 42.1161024 4.18 42.0585201 4.20366857 42.0108213 4.23971429 41.9513052 4.26251429 41.9061847 4.28553143 41.8589157 4.32114286 41.8127209 4.34524571 41.7641627 4.38085714 41.7085141 4.40344 41.661245 4.43992 41.6141908 4.46358857 41.5673514 4.49681143 41.5213715 4.53350857 41.4736727 4.56890286 41.4274779 4.60538286 41.3931004 4.63969143 41.3471205 4.66336 41.3241305 4.69766857 41.2891084 4.72242286 41.2523675 4.75673143 41.219494 4.78170286 41.1838273 4.81731429 41.1477309 4.85032 41.1142129 4.88766857 41.0785462 4.91068571 41.0430944 4.94586286 41.0093614 4.98017143 40.9741245 5.02859429 40.9393173 5.06333714 40.9032209 5.09851429 40.8686285 5.14563429 40.8583153 5.16843429 40.8456386 5.16843429 40.8217892 5.20491429 40.8007329 5.2288 40.7753795 5.25116571 40.7528193 5.27570286 40.7407871 5.31109714 40.7175823 5.33389714 40.6943775 5.35669714 40.6834197 5.38145143 40.6587108 5.40425143 40.6481827 5.41619429 40.63701 5.43942857 40.6120863 5.46374857 40.6009137 5.48741714 40.5893112 5.51108571 40.566751 5.53540571 40.5420422 5.56971429 40.5194819 5.60445714 40.4958474 5.64006857 40.4846747 5.66438857 40.4614699 5.69956571 40.4374056 5.73344 40.4152751 5.75797714 40.4028133 5.79358857 40.3808976 5.82963429 40.3671466 5.86481143 40.3439418 5.88739429 40.3211667 5.92257143 40.3095643 5.95905143 40.2855 5.99336 40.274757 6.02897143 40.2513373 6.06588571 40.2390904 6.08890286 40.2285622 6.12451429 40.2055723 6.15882286 40.1920361 6.19313143 40.1699056 6.22961143 40.1595924 6.26392 40.1473454 6.30083429 40.1350984 6.33470857 40.1101747 6.37118857 40.0985723 6.4068 40.088259 6.44045714 40.0762269 6.47693714 40.0656988 6.51211429 40.0536667 6.54859429 40.0418494 6.58290286 40.0304618 6.62872 40.0068273 6.67584 39.9939357 6.73512 39.9715904 6.79461714 39.9612771 6.85302857 39.9490301 6.91165714 39.9367831 6.97093714 39.9243213 7.03108571 39.9142229 7.08928 39.901761 7.14834286 39.8899438 7.20632 39.8789859 7.26603429 39.8789859 7.32509714 39.8665241 7.38350857 39.8665241 7.44257143 39.8557811 7.50272 39.8557811 7.55961143 39.8557811 7.61889143 39.8557811 7.67882286 39.8557811 7.7368 39.8557811 7.80780571 39.8557811 7.86708571 39.8557811 7.92484571 39.8557811 7.98412571 39.8665241 8.04232 39.8665241 8.10246857 39.8665241 8.16109714 39.8789859 8.21864 39.8899438 8.27857143 39.8899438 8.33828571 39.901761 8.39561143 39.9142229 8.45532571 39.9243213 8.52654857 39.9367831 8.58474286 39.9490301 8.63099429 39.9612771 8.6792 39.9715904 8.72632 39.9831928 8.77257143 39.9939357 8.82099429 40.0068273 8.87766857 40.0184297 8.92609143 40.0304618 8.97277714 40.0418494 9.02076571 40.0536667 9.06723429 40.3439418 9.97358857 39.5296245 10.4215543 39.4705382 10.4571657 39.412741 10.4919086 39.3547289 10.52752 39.2967169 10.5626971 39.2372008 10.5987429 39.2028233 10.6330514 39.1555542 10.6586743 39.1102189 10.6938514 39.0732631 10.72816 39.027498 10.7518286 38.9802289 10.7870057 38.9348936 10.8226171 38.8996566 10.8571429 38.8536767 10.8936229 38.8064076 10.9279314 38.7713855 10.9639771 38.7241165 11.0106629 38.689739 11.0449714 38.6426847 11.0827543 38.6087369 11.1179314 38.5500803 11.1754743 38.4800361 11.2466971 38.4226687 11.3177029 38.3524096 11.3876229 38.2926787 11.4690514 38.2359558 11.5411429 38.1772992 11.62344 38.1192871 11.7061714 38.0715884 11.7756571 38.0133614 11.8583886 37.9669518 11.94112 37.919253 12.0342743 37.8743474 12.1170057 37.8395402 12.1997371 37.7927008 12.2944114 37.7581084 12.3782286 37.7233012 12.4711657 37.6882791 12.5538971 37.6534719 12.6490057 37.6289779 12.74216 37.595245 12.8381371 37.5709659 12.9295543 37.5494799 13.0246629 37.5363735 13.1204229 37.5131687 13.21336 37.5022108 13.3071657 37.4770723 13.4016229 37.4661145 13.4962971 37.4661145 13.5896686 37.4534378 13.6956343 37.4534378 13.7896571 37.4424799 13.8838971 37.4424799 13.9911657 37.4424799 14.0841029 37.4534378 14.17856 37.4534378 14.2719314 37.4661145 14.3783314 37.4661145 14.47344 37.4770723 14.5663771 37.5022108 14.6612686 37.5131687 14.7559429 37.5363735 14.8508343 37.5494799 14.9437714 37.5709659 15.0386629 37.595245 15.1333371 37.6289779 15.22584 37.6534719 15.3211657 37.6882791 15.4038971 37.7233012 15.4990057 37.7581084 15.5810857 37.7927008 15.6744571 37.8395402 15.7567543 37.8743474 15.8501257 37.919253 15.9343771 37.9669518 16.0153714 38.0133614 16.09984 38.0715884 16.1808343 38.1192871 16.2631314 38.1772992 16.3462971 38.2359558 16.4170857 38.2926787 16.4985143 38.3524096 16.5684343 38.4226687 16.6400914 38.4800361 16.7228229 38.5616827 16.8055543 38.6087369 16.85224 38.6426847 16.87504 38.6676084 16.9110857 38.7013414 16.9349714 38.7365783 16.9577714 38.7597831 16.9946857 38.7950201 17.0177029 38.8298273 17.0405029 38.8536767 17.0646057 38.8889137 17.0880571 38.9237209 17.1232343 38.9469257 17.1473371 38.9802289 17.1707886 39.0158956 17.1940229 39.0511325 17.2166057 39.0732631 17.2402743 39.1102189 17.26568 39.1441667 17.28696 39.1798333 17.3119314 39.2150703 17.3360343 39.2372008 17.3471086 39.2732972 17.3696914 39.3085341 17.3937943 39.3431265 17.4187657 39.3772892 17.4417829 39.412741 17.4524229 39.4464739 17.47696 39.4832149 17.49976 39.5182369 17.5117029 39.5519699 17.5349371 39.5878514 17.5490514 39.6112711 17.5712 39.6456486 17.5829257 39.7030161 17.6176686 39.7502851 17.6424229 39.7979839 17.6643543 39.8557811 17.68824 39.901761 17.7127771 39.9612771 17.7364457 40.0068273 17.7598971 40.0656988 17.7707543 40.1224217 17.7955086 40.1699056 17.81744 40.2285622 17.8298171 40.2855 17.84176 40.3331988 17.8654286 40.390996 17.87824 40.449008 17.8882286 40.5072349 17.9112457 40.5547189 17.9240571 40.6120863 17.9357829 40.6711727 17.9468571 40.728755 17.9468571 40.7880562 17.9592343 40.8329618 17.9705257 40.8935522 17.9829029 40.95049 17.9829029 41.0093614 17.9944114 41.0667289 17.9944114 41.1249558 17.9944114 41.1838273 18.0070057 41.2422691 18.0070057 41.2891084 18.0070057 41.3471205 18.0070057 63.3596847 18.0070057 63.4297289 18.0070057 63.5107309 18.0070057 63.5807751 17.9944114 63.6630663 17.9944114 63.7320361 17.9829029 63.8020803 17.9829029 63.8830823 17.9705257 63.9531265 17.9592343 64.0244598 17.9468571 64.1054618 17.9240571 64.1750763 17.9112457 64.2451205 17.9001714 64.3145201 17.87824 64.384994 17.8534857 64.4664257 17.8298171 64.5360402 17.81744 64.6060843 17.7831314 64.6756988 17.7598971 64.7466024 17.7364457 64.816002 17.7127771 64.8746586 17.6771657 64.9438434 17.6424229 65.0143173 17.6176686 65.0856506 17.5829257 65.1432329 17.5490514 65.2124177 17.5117029 65.2828916 17.4645829 65.3404739 17.4302743 65.4105181 17.3937943 65.4685301 17.3471086 65.5381446 17.3119314 65.607759 17.25352 65.655243 17.2166057 65.6900502 17.1940229 65.7134699 17.1707886 65.7487068 17.1473371 65.7835141 17.1232343 65.8062892 17.1004343 65.8408815 17.0765486 65.8754739 17.0405029 65.899753 17.0177029 65.93499 16.9946857 65.9710863 16.9697143 65.9934317 16.9349714 66.0288835 16.9110857 66.0621867 16.87504 66.0853916 16.85224 66.1210582 16.8166286 66.2390161 16.6995886 66.2841365 16.6524686 66.3200181 16.60448 66.365998 16.5575771 66.4016647 16.5100229 66.4358273 16.4637714 66.4706345 16.4170857 66.5174739 16.3704 66.5527108 16.32328 66.5754859 16.2755086 66.6107229 16.2270857 66.6455301 16.1808343 66.6816265 16.1224229 66.7155743 16.0757371 66.7392088 16.0273143 66.7735863 15.9689029 66.7978655 15.9222171 66.8217149 15.8742286 66.8554478 15.8173371 66.8788675 15.7678286 66.9018574 15.7096343 66.9250622 15.66208 66.9489116 15.6036686 66.9716867 15.55568 66.9951064 15.4990057 67.0189558 15.4510171 67.0413012 15.3928229 67.0539779 15.3450514 67.0763233 15.28512 67.0883554 15.22584 67.1117751 15.1795886 67.1235924 15.1196571 67.147012 15.0501714 67.1588293 15.0043543 67.1702169 14.9798171 67.1702169 14.9437714 67.1826787 14.9085943 67.1826787 14.8734171 67.1932068 14.8388914 67.2037349 14.8041486 67.2037349 14.7783086 67.2174859 14.744 67.2174859 14.7088229 67.2275843 14.6736457 67.2275843 14.6260914 67.240261 14.59048 67.240261 14.5548686 67.2518635 14.5201257 67.2518635 14.47344 67.2518635 14.4267543 67.2623916 14.4030857 67.2623916 14.3666057 67.2623916 14.34272 67.2623916 14.30928 67.2623916 14.2838743 67.2623916 14.2495657 67.2750683 14.2252457 67.2750683 14.1909371 67.2750683 14.1664 67.2750683 14.1320914 67.2750683 14.1082057 67.2750683 14.0738971 67.2750683 14.04936 67.2750683 14.0133143 67.2750683 13.9785714 67.2750683 13.9066971 67.2750683 13.8257029 67.2623916 13.7431886 67.2623916 13.6726171 67.2623916 13.5896686 67.2518635 13.5073714 67.240261 13.4242057 67.2275843 13.3549371 67.2174859 13.2724229 67.2037349 13.1901257 67.1932068 13.1204229 67.1702169 13.0366057 67.1588293 12.9673371 67.1345502 12.8830857 67.1117751 12.8125143 67.0883554 12.73 67.0651506 12.6594286 67.0413012 12.5882057 67.0189558 12.5054743 66.9832892 12.43512 66.9598695 12.3647657 66.9250622 12.2944114 66.8889659 12.2231886 66.8554478 12.1526171 66.8217149 12.0822629 66.7845442 12.0114743 66.7392088 11.94112 66.7026827 11.8714171 66.6582068 11.8117029 66.6107229 11.7391771 66.5636687 11.6822857 66.5297209 11.62344 66.5174739 11.5995543 66.4830964 11.56568 66.4579578 11.5292 66.4358273 11.5046629 66.4117631 11.4690514 66.3883434 11.4347429 66.365998 11.41216 66.330761 11.3752457 66.3077711 11.3520114 66.2841365 11.3177029 66.2613614 11.2933829 66.2390161 11.26928 66.2145221 11.2349714 66.1906727 11.2104343 66.1567249 11.1865486 66.1449076 11.1637486 66.1088112 11.1292229 66.0621867 11.0931771 66.015992 11.0449714 65.9824739 11.0106629 65.93499 10.9761371 65.8872912 10.9279314 65.8537731 10.8936229 65.8062892 10.8571429 65.7588052 10.8226171 65.7252871 10.7870057 65.6790924 10.7642057 65.6320382 10.72816 65.5968012 10.6938514 65.5499618 10.6699657 65.51451 10.6330514 65.4685301 10.6106857 65.4223353 10.5742057 65.3643233 10.5398971 65.3172691 10.5038514 65.2586124 10.46976 65.1999558 10.4452229 65.1432329 10.41048 64.3630783 9.97358857 64.6535683 9.06723429 64.664741 9.03292571 64.6756988 8.99731429 64.6756988 8.96083429 64.6879458 8.93803429 64.6995482 8.90198857 64.6995482 8.86746286 64.7096466 8.84336 64.7223233 8.80731429 64.7332811 8.77257143 64.7332811 8.73652571 64.7466024 8.70221714 64.7567008 8.66747429 64.7567008 8.63099429 64.7698072 8.59646857 64.7809799 8.56085714 64.7809799 8.52654857 64.7932269 8.49050286 64.8033253 8.43122286 64.8033253 8.37259429 64.816002 8.32504 64.8284639 8.26576 64.8284639 8.20713143 64.838992 8.14828571 64.838992 8.09009143 64.8516687 8.04232 64.8516687 7.98412571 64.8641305 7.92484571 64.8641305 7.86708571 64.8641305 7.80780571 64.8641305 7.74874286 64.8641305 7.69033143 64.8641305 7.61889143 64.8641305 7.54897143 64.8516687 7.47905143"></polygon>
                <path d="M42.4540763,11.2102171 C42.1393072,11.0931771 41.7776988,11.0349829 41.3471205,11.0349829 C40.8108313,11.0349829 40.3097791,11.1865486 39.8321466,11.51856 C39.6566064,11.6356 39.4930984,11.7650171 39.3306647,11.9287429 C38.7948052,12.4939657 38.5262309,13.1777486 38.5262309,13.9911657 C38.5262309,14.7783086 38.7948052,15.4623086 39.3306647,16.0273143 C39.5753896,16.2752914 39.8321466,16.4635543 40.1099598,16.5921029 C40.4956325,16.8055543 40.9156827,16.9110857 41.3471205,16.9110857 L50.973253,16.9110857 L43.5133333,11.8345029 C43.3268353,11.7174629 43.1641867,11.5995543 43.0122811,11.51856 C42.7909759,11.3752457 42.6059819,11.2690629 42.4540763,11.2102171" id="Shape" fill="#F2C318"></path>
                <path d="M45.6355,5.48741714 C45.5527791,5.43942857 45.4848835,5.39165714 45.4131205,5.33389714 C44.8082912,4.92045714 44.0852892,4.79321143 43.2473373,4.94586286 C42.7911908,5.03945143 42.3954197,5.21642286 42.0585201,5.48741714 C41.9186466,5.60445714 41.7895161,5.72193143 41.6737068,5.86481143 C41.5914157,5.95905143 41.5213715,6.06588571 41.4519719,6.15882286 C41.2766466,6.41744 41.136988,6.67584 41.0559859,6.95986286 C40.9156827,7.38350857 40.8935522,7.84428571 40.9846526,8.32504 C41.0667289,8.73652571 41.2066024,9.11348571 41.3933153,9.42052571 C41.5914157,9.73864 41.8468835,9.99747429 42.1506948,10.1974629 L50.5525582,16.0045143 L46.7656606,7.22912 C46.7186064,7.13770286 46.6850884,7.04259429 46.6494217,6.95986286 C46.4970863,6.58290286 46.3576426,6.30083429 46.2298012,6.09889143 C46.1722189,6.02897143 46.1122731,5.94624 46.0428735,5.86481143 C45.9264197,5.73344 45.7865462,5.60445714 45.6355,5.48741714" id="Shape" fill="#E97224"></path>
                <path d="M50.1797771,1.27180571 C50.0974859,1.23532571 50.0160542,1.21296 49.9230201,1.18864 C49.4453876,1.05857143 48.9668956,1.05857143 48.4903373,1.18864 C48.3266145,1.23532571 48.1628916,1.29438857 47.9993835,1.36604571 C47.266498,1.69501714 46.7654458,2.22484571 46.4968715,2.94358857 C46.4856988,2.97833143 46.4629237,3.02632 46.4500321,3.06193143 C46.2044478,3.80412571 46.2166948,4.50897143 46.508259,5.18124571 L50.6230321,14.73336 L51.9850261,5.08570286 C52.0686064,4.54632 52.1025542,4.13288 52.0915964,3.86318857 C52.0791345,3.60305143 52.0196185,3.34443429 51.9272289,3.06193143 C51.9053133,2.96704 51.8571847,2.87149714 51.8223775,2.76726857 C51.5192108,2.07176 50.973253,1.57710857 50.1797771,1.27180571" id="Shape" fill="#C01F46"></path>
                <path d="M61.6936647,11.51856 C61.5408996,11.5995543 61.3788956,11.7174629 61.1921827,11.8345029 L53.7341968,16.9110857 L63.3596847,16.9110857 C63.9325,16.9110857 64.4662108,16.7338971 64.97951,16.3704 C65.1071365,16.2752914 65.2354076,16.1578171 65.3761406,16.0273143 C65.3991305,16.0042971 65.4223353,15.9806286 65.458002,15.9445829 C65.7706225,15.6034514 65.9824739,15.2154171 66.0987129,14.7659314 C66.1335201,14.6369486 66.1683273,14.4971086 66.1792851,14.3546629 C66.1906727,14.2371886 66.1906727,14.1082057 66.1906727,13.9911657 C66.1906727,13.3308343 66.0162068,12.7534514 65.655243,12.2713943 C65.5733815,12.1526171 65.480992,12.0342743 65.3761406,11.9287429 C65.2124177,11.7650171 65.0379518,11.6356 64.8641305,11.51856 C64.664741,11.3654743 64.4436506,11.2582057 64.2221305,11.1754743 C63.941739,11.0825371 63.6493153,11.0349829 63.3596847,11.0349829 C62.9295361,11.0349829 62.5666386,11.0931771 62.264761,11.2102171 C62.1128554,11.26928 61.9141104,11.3752457 61.6936647,11.51856" id="Shape" fill="#05AC4B"></path>
                <path d="M58.2550542,3.06193143 C58.2428072,3.02632 58.2193876,2.97833143 58.2084297,2.94358857 C57.9280382,2.21203429 57.4282751,1.69501714 56.7057028,1.36582857 C56.5424096,1.29417143 56.3795462,1.23532571 56.2160382,1.18864 C55.7388353,1.05835429 55.2618474,1.05835429 54.7820663,1.18864 C54.6896767,1.21274286 54.6086747,1.23532571 54.527243,1.27180571 C53.7341968,1.57710857 53.1873795,2.08305143 52.8831386,2.76726857 C52.848761,2.87149714 52.8012771,2.96704 52.7664699,3.06193143 C52.627241,3.48470857 52.5806165,3.89749714 52.627241,4.32114286 L52.627241,4.38085714 L53.4078253,4.38085714 C53.6407329,4.40344 53.7917791,4.43992 53.8283052,4.49659429 C53.8863173,4.55696 53.7683594,4.65185143 53.5126767,4.75673143 L53.3145763,4.88766857 L53.0694217,5.08570286 C52.9662892,5.18124571 52.9061285,5.32282286 52.8713213,5.48741714 C52.848761,5.60445714 52.8360843,5.72193143 52.848761,5.86481143 C52.848761,5.92257143 52.848761,5.97012571 52.8614378,6.04048 L54.0842028,14.73336 L58.2084297,5.18124571 C58.4879618,4.53350857 58.5115964,3.81563429 58.2550542,3.06193143" id="Shape" fill="#70569E"></path>
                <path d="M63.7805944,7.66601143 C63.7563153,7.14812571 63.5930221,6.65238857 63.2653614,6.15882286 C63.1961767,6.06588571 63.1261325,5.95905143 63.0438414,5.86481143 C62.929751,5.72193143 62.7995462,5.60445714 62.6603173,5.48741714 C62.3094518,5.21642286 61.9141104,5.02859429 61.4605422,4.94586286 C60.6208715,4.79321143 59.8978695,4.92024 59.2934699,5.33389714 C59.2221365,5.39144 59.141994,5.43942857 59.0689418,5.48741714 C58.918755,5.6164 58.7911285,5.73344 58.6748896,5.86481143 C58.594747,5.94624 58.5352309,6.02897143 58.4881767,6.09889143 C58.33799,6.33470857 58.1508474,6.71145143 57.9405,7.22912 L54.1531727,16.0042971 L62.555251,10.1974629 C62.8704498,9.98553143 63.1143153,9.73864 63.3117711,9.42052571 C63.3364799,9.39598857 63.3474378,9.37384 63.3596847,9.33822857 C63.463247,9.16060571 63.5463976,8.96083429 63.6155823,8.74912 C63.6491004,8.61905143 63.6983032,8.4664 63.7204337,8.32504 C63.7681325,8.10246857 63.7906928,7.87685714 63.7805944,7.66601143" id="Shape" fill="#038ACB"></path>
                <path d="M106.095442,36.0018514 C106.095442,35.7071886 105.859526,35.4678971 105.566673,35.4678971 L105.040052,35.4678971 C104.994287,35.4678971 104.956472,35.50568 104.956472,35.5523657 L104.956472,37.24304 C104.956472,37.2895086 104.994287,37.3272914 105.040052,37.3272914 C105.086677,37.3272914 105.123418,37.2895086 105.123418,37.24304 L105.123418,36.53624 L105.603629,36.53624 L105.918398,37.3173029 L106.095442,37.3173029 L105.765633,36.4971543 C105.959006,36.4174629 106.095442,36.2263771 106.095442,36.0018514 M105.566673,36.3525371 L105.123418,36.3525371 L105.123418,35.6518171 L105.566673,35.6518171 C105.759187,35.6518171 105.913241,35.8088114 105.913241,36.0018514 C105.913241,36.1955429 105.759187,36.3525371 105.566673,36.3525371" id="Shape" fill="#FFFFFF"></path>
                <path d="M105.439046,34.8963771 C104.619787,34.8963771 103.953508,35.5701714 103.953508,36.3972686 C103.953508,37.2252343 104.619787,37.8994629 105.439046,37.8994629 C106.25895,37.8994629 106.926303,37.2254514 106.926303,36.3972686 C106.926303,35.5699543 106.25895,34.8963771 105.439046,34.8963771 M105.439046,37.7164114 C104.719697,37.7164114 104.135279,37.1246971 104.135279,36.3972686 C104.135279,35.6702743 104.719912,35.0787771 105.439046,35.0787771 C106.158825,35.0787771 106.743673,35.6704914 106.743673,36.3972686 C106.743673,37.1246971 106.15861,37.7164114 105.439046,37.7164114" id="Shape" fill="#FFFFFF"></path>
            </g>
        </g>
    </g>
</svg>