<?xml version="1.0" encoding="utf-8"?>
<!-- Generator: Adobe Illustrator 16.0.4, SVG Export Plug-In . SVG Version: 6.00 Build 0)  -->
<!DOCTYPE svg PUBLIC "-//W3C//DTD SVG 1.1//EN" "http://www.w3.org/Graphics/SVG/1.1/DTD/svg11.dtd">
<svg version="1.1" id="Layer_2" xmlns="http://www.w3.org/2000/svg" xmlns:xlink="http://www.w3.org/1999/xlink" x="0px" y="0px"
	 width="320px" height="241px" viewBox="0 0 320 241" enable-background="new 0 0 320 241" xml:space="preserve">
<g>
	<path fill="#634DA0" d="M107.719,135.426c0-1.967,1.639-3.596,3.668-3.596c2.03,0,3.664,1.629,3.664,3.596
		c0,1.988-1.633,3.615-3.664,3.615C109.358,139.041,107.719,137.414,107.719,135.426L107.719,135.426z"/>
	<path fill="#634DA0" d="M111.388,126.967c0-2.137,1.744-3.889,3.892-3.889c2.14,0,3.891,1.752,3.891,3.889
		c0,2.158-1.75,3.893-3.891,3.893C113.132,130.859,111.388,129.125,111.388,126.967L111.388,126.967z"/>
	<path fill="#634DA0" d="M105.804,144.457c0-1.693,1.407-3.109,3.215-3.109c1.745,0,3.215,1.416,3.215,3.109
		c0,1.691-1.412,3.107-3.215,3.107C107.211,147.607,105.804,146.213,105.804,144.457L105.804,144.457z"/>
	<path fill="#634DA0" d="M105.239,153.996c0-1.42,1.184-2.541,2.596-2.541c1.406,0,2.59,1.121,2.59,2.541
		c0,1.393-1.184,2.535-2.59,2.535C106.423,156.531,105.239,155.389,105.239,153.996L105.239,153.996z"/>
	<path fill="#634DA0" d="M105.578,164.018c0-1.225,1.016-2.24,2.199-2.24c1.242,0,2.199,1.016,2.199,2.24
		c0,1.248-1.014,2.262-2.199,2.262C106.593,166.217,105.578,165.266,105.578,164.018L105.578,164.018z"/>
	<path fill="#634DA0" d="M107.549,174.572c0-1.08,0.847-1.926,1.919-1.926c1.073,0,1.919,0.846,1.919,1.926
		c0,1.076-0.846,1.924-1.919,1.924C108.396,176.496,107.549,175.648,107.549,174.572L107.549,174.572z"/>
	<path fill="#634DA0" d="M110.992,185.164c0-0.779,0.676-1.457,1.464-1.457c0.793,0,1.47,0.678,1.47,1.457
		c0,0.805-0.677,1.482-1.47,1.482C111.667,186.646,110.992,185.969,110.992,185.164L110.992,185.164z"/>
	<path fill="#9E1C20" d="M114.883,144.055c-0.339-1.967,0.957-3.828,2.934-4.166c1.972-0.338,3.775,0.951,4.114,2.939
		c0.338,1.967-0.958,3.828-2.929,4.166C117.082,147.334,115.221,146.041,114.883,144.055L114.883,144.055z"/>
	<path fill="#9E1C20" d="M117.024,135.152c-0.338-2.094,1.073-4.125,3.161-4.463c2.083-0.338,4.113,1.078,4.452,3.172
		c0.338,2.074-1.067,4.104-3.157,4.441C119.339,138.705,117.362,137.244,117.024,135.152L117.024,135.152z"/>
	<path fill="#9E1C20" d="M114.486,153.316c-0.281-1.691,0.845-3.34,2.538-3.615c1.692-0.273,3.33,0.846,3.611,2.539
		c0.28,1.689-0.846,3.318-2.538,3.615C116.347,156.193,114.771,155.051,114.486,153.316L114.486,153.316z"/>
	<path fill="#9E1C20" d="M115.501,162.727c-0.222-1.416,0.676-2.705,2.087-2.939c1.413-0.209,2.708,0.68,2.936,2.094
		c0.222,1.418-0.677,2.707-2.089,2.941C117.024,165.033,115.728,164.082,115.501,162.727L115.501,162.727z"/>
	<path fill="#9E1C20" d="M117.531,172.541c-0.222-1.186,0.566-2.307,1.75-2.539c1.183-0.23,2.311,0.613,2.48,1.799
		c0.226,1.184-0.561,2.326-1.745,2.537C118.832,174.572,117.759,173.725,117.531,172.541L117.531,172.541z"/>
	<path fill="#3C8BCB" d="M102.928,125.275c0.339-1.967,2.2-3.256,4.113-2.918c1.978,0.34,3.273,2.197,2.935,4.164
		s-2.199,3.279-4.119,2.941C103.886,129.061,102.59,127.264,102.928,125.275L102.928,125.275z"/>
	<path fill="#3C8BCB" d="M107.835,117.556c0.338-2.094,2.368-3.553,4.452-3.15c2.088,0.338,3.5,2.368,3.162,4.441
		c-0.339,2.092-2.369,3.551-4.457,3.172C108.903,121.682,107.497,119.65,107.835,117.556L107.835,117.556z"/>
	<path fill="#3C8BCB" d="M99.487,133.861c0.28-1.691,1.919-2.877,3.611-2.539c1.691,0.275,2.818,1.906,2.537,3.598
		c-0.285,1.691-1.918,2.875-3.61,2.535C100.333,137.182,99.207,135.596,99.487,133.861L99.487,133.861z"/>
	<path fill="#3C8BCB" d="M97.346,143.039c0.222-1.395,1.575-2.305,2.929-2.072c1.412,0.211,2.316,1.566,2.088,2.918
		c-0.227,1.354-1.581,2.328-2.934,2.094C98.022,145.746,97.119,144.457,97.346,143.039L97.346,143.039z"/>
	<path fill="#3C8BCB" d="M96.045,153.021c0.227-1.186,1.301-1.967,2.484-1.797c1.186,0.23,1.973,1.352,1.804,2.537
		c-0.228,1.184-1.296,1.967-2.48,1.797C96.611,155.348,95.824,154.205,96.045,153.021L96.045,153.021z"/>
	<path fill="#3C8BCB" d="M96.104,163.742c0.168-1.078,1.184-1.797,2.257-1.584c1.068,0.168,1.745,1.184,1.576,2.262
		c-0.169,1.078-1.184,1.797-2.252,1.586C96.669,165.773,95.935,164.758,96.104,163.742L96.104,163.742z"/>
	<path fill="#3C8BCB" d="M97.795,174.846c0.111-0.783,0.904-1.354,1.692-1.227c0.788,0.105,1.354,0.887,1.242,1.689
		c-0.116,0.785-0.903,1.355-1.692,1.229C98.245,176.43,97.626,175.648,97.795,174.846L97.795,174.846z"/>
	<path fill="#6EB043" d="M99.318,115.357c0.734-1.861,2.818-2.708,4.679-1.967c1.807,0.72,2.707,2.812,1.977,4.674
		c-0.735,1.861-2.824,2.707-4.685,1.967C99.429,119.311,98.529,117.218,99.318,115.357L99.318,115.357z"/>
	<path fill="#6EB043" d="M105.747,108.865c0.788-1.967,3.045-2.919,5.017-2.136c1.978,0.781,2.934,3.044,2.146,5.012
		c-0.793,1.988-3.045,2.938-5.022,2.157C105.917,113.157,104.958,110.894,105.747,108.865L105.747,108.865z"/>
	<path fill="#6EB043" d="M94.073,123.033c0.619-1.586,2.48-2.368,4.062-1.754c1.58,0.676,2.368,2.473,1.749,4.061
		c-0.623,1.586-2.485,2.367-4.059,1.756C94.242,126.461,93.455,124.6,94.073,123.033L94.073,123.033z"/>
	<path fill="#6EB043" d="M90.013,131.535c0.507-1.291,2.03-1.967,3.326-1.396c1.3,0.51,1.919,2.031,1.412,3.32
		c-0.508,1.291-2.031,1.967-3.325,1.418C90.124,134.307,89.505,132.848,90.013,131.535L90.013,131.535z"/>
	<path fill="#6EB043" d="M86.629,140.967c0.45-1.141,1.692-1.648,2.819-1.184c1.131,0.443,1.638,1.732,1.183,2.812
		c-0.449,1.121-1.691,1.627-2.817,1.184C86.74,143.336,86.18,142.088,86.629,140.967L86.629,140.967z"/>
	<path fill="#6EB043" d="M84.43,151.455c0.396-1.014,1.523-1.479,2.538-1.076c1.016,0.4,1.464,1.521,1.073,2.535
		c-0.397,1.016-1.523,1.461-2.538,1.082C84.488,153.592,84.033,152.471,84.43,151.455L84.43,151.455z"/>
	<path fill="#6EB043" d="M83.695,162.664c0.285-0.783,1.184-1.121,1.918-0.846c0.736,0.297,1.126,1.184,0.847,1.924
		c-0.28,0.742-1.185,1.121-1.919,0.846C83.811,164.314,83.356,163.467,83.695,162.664L83.695,162.664z"/>
	<path fill="#003359" d="M97.514,103.853c0.958-1.755,3.157-2.369,4.849-1.354c1.75,0.951,2.311,3.151,1.354,4.906
		c-0.958,1.755-3.158,2.368-4.849,1.353C97.119,107.808,96.553,105.608,97.514,103.853L97.514,103.853z"/>
	<path fill="#003359" d="M104.731,98.27c1.072-1.86,3.385-2.538,5.245-1.465c1.861,1.068,2.538,3.384,1.465,5.292
		c-1.068,1.925-3.384,2.538-5.245,1.48C104.335,102.499,103.717,100.131,104.731,98.27L104.731,98.27z"/>
	<path fill="#003359" d="M91.366,110.789c0.846-1.523,2.765-2.031,4.229-1.185c1.523,0.846,2.031,2.771,1.185,4.293
		c-0.846,1.522-2.766,2.03-4.23,1.184C91.028,114.172,90.52,112.312,91.366,110.789L91.366,110.789z"/>
	<path fill="#003359" d="M86.291,118.677c0.677-1.227,2.258-1.692,3.495-0.953c1.242,0.74,1.691,2.264,0.962,3.491
		c-0.677,1.248-2.258,1.691-3.5,0.973C86.011,121.447,85.556,119.925,86.291,118.677L86.291,118.677z"/>
	<path fill="#003359" d="M81.723,127.645c0.566-1.057,1.919-1.396,2.935-0.848c1.014,0.572,1.406,1.926,0.845,3.004
		c-0.565,1.059-1.919,1.396-2.934,0.848C81.496,130.012,81.104,128.66,81.723,127.645L81.723,127.645z"/>
	<path fill="#003359" d="M78.17,137.752c0.508-0.971,1.691-1.311,2.649-0.74c0.962,0.508,1.3,1.756,0.734,2.645
		c-0.508,0.973-1.692,1.311-2.649,0.74C78.001,139.889,77.663,138.705,78.17,137.752L78.17,137.752z"/>
	<path fill="#003359" d="M76.029,148.791c0.392-0.719,1.295-0.951,2.03-0.549c0.729,0.381,0.957,1.289,0.561,2.029
		c-0.392,0.721-1.295,0.953-2.031,0.549C75.859,150.441,75.632,149.531,76.029,148.791L76.029,148.791z"/>
	<path fill="#003359" d="M97.567,92.121c1.301-1.522,3.553-1.745,5.023-0.449c1.522,1.295,1.691,3.553,0.449,5.076
		c-1.295,1.522-3.553,1.75-5.017,0.448C96.5,95.901,96.331,93.644,97.567,92.121L97.567,92.121z"/>
	<path fill="#003359" d="M105.688,87.95c1.353-1.634,3.78-1.861,5.414-0.508c1.639,1.353,1.861,3.833,0.507,5.472
		c-1.354,1.633-3.775,1.861-5.414,0.508C104.562,92.01,104.335,89.583,105.688,87.95L105.688,87.95z"/>
	<path fill="#003359" d="M90.293,97.762c1.132-1.353,3.045-1.522,4.399-0.396c1.3,1.131,1.522,3.103,0.396,4.394
		c-1.126,1.354-3.045,1.522-4.399,0.402C89.336,101.082,89.167,99.116,90.293,97.762L90.293,97.762z"/>
	<path fill="#003359" d="M83.811,104.635c0.898-1.057,2.539-1.226,3.606-0.338c1.072,0.91,1.242,2.537,0.337,3.616
		c-0.898,1.078-2.537,1.247-3.605,0.338C83.076,107.3,82.907,105.713,83.811,104.635L83.811,104.635z"/>
	<path fill="#003359" d="M77.721,112.544c0.788-0.91,2.141-1.078,3.045-0.296c0.898,0.804,1.015,2.158,0.28,3.109
		c-0.787,0.91-2.141,1.078-3.045,0.275C77.044,114.849,76.928,113.496,77.721,112.544L77.721,112.544z"/>
	<path fill="#003359" d="M72.418,121.85c0.676-0.846,1.918-0.975,2.765-0.232c0.846,0.676,0.957,1.924,0.222,2.77
		c-0.729,0.846-1.914,0.953-2.76,0.213C71.8,123.881,71.683,122.697,72.418,121.85L72.418,121.85z"/>
	<path fill="#003359" d="M68.246,132.275c0.508-0.613,1.465-0.74,2.084-0.17c0.623,0.572,0.734,1.461,0.169,2.094
		c-0.508,0.613-1.464,0.721-2.083,0.17C67.792,133.861,67.738,132.951,68.246,132.275L68.246,132.275z"/>
	<path fill="#003359" d="M99.883,81.579c1.523-1.244,3.775-1.074,5.018,0.507c1.242,1.522,1.073,3.775-0.508,5.076
		c-1.581,1.294-3.78,1.067-5.017-0.508C98.134,85.074,98.36,82.816,99.883,81.579L99.883,81.579z"/>
	<path fill="#003359" d="M108.623,78.983c1.633-1.354,4.061-1.126,5.414,0.507c1.353,1.635,1.126,4.119-0.508,5.473
		c-1.633,1.353-4.06,1.126-5.412-0.508C106.762,82.763,106.989,80.335,108.623,78.983L108.623,78.983z"/>
	<path fill="#003359" d="M91.705,85.808c1.354-1.131,3.273-0.904,4.399,0.392c1.073,1.354,0.904,3.331-0.396,4.398
		c-1.354,1.131-3.268,0.904-4.399-0.391C90.182,88.854,90.351,86.876,91.705,85.808L91.705,85.808z"/>
	<path fill="#003359" d="M84.091,91.333c1.074-0.905,2.707-0.735,3.612,0.338c0.898,1.073,0.729,2.707-0.338,3.611
		c-1.074,0.898-2.707,0.73-3.612-0.338C82.849,93.871,83.019,92.237,84.091,91.333L84.091,91.333z"/>
	<path fill="#003359" d="M76.648,98.042c0.904-0.787,2.31-0.619,3.045,0.285c0.734,0.898,0.619,2.311-0.281,3.05
		c-0.904,0.783-2.316,0.613-3.045-0.296C75.574,100.188,75.743,98.777,76.648,98.042L76.648,98.042z"/>
	<path fill="#003359" d="M69.711,106.222c0.846-0.677,2.031-0.571,2.765,0.274c0.73,0.846,0.561,2.094-0.285,2.771
		c-0.845,0.677-2.03,0.572-2.76-0.275C68.807,108.146,68.924,106.898,69.711,106.222L69.711,106.222z"/>
	<path fill="#003359" d="M63.731,115.695c0.625-0.507,1.581-0.443,2.088,0.233c0.508,0.677,0.45,1.564-0.227,2.071
		c-0.677,0.509-1.575,0.465-2.083-0.21C63.003,117.113,63.113,116.267,63.731,115.695L63.731,115.695z"/>
	<path fill="#003359" d="M104.393,71.539c1.692-1.015,3.891-0.397,4.907,1.295c1.015,1.691,0.396,3.891-1.296,4.907
		c-1.692,1.015-3.891,0.396-4.906-1.296C102.083,74.754,102.702,72.555,104.393,71.539L104.393,71.539z"/>
	<path fill="#003359" d="M113.418,70.413c1.861-1.074,4.23-0.455,5.298,1.406c1.073,1.861,0.454,4.229-1.407,5.303
		c-1.861,1.073-4.23,0.449-5.303-1.412C110.933,73.849,111.61,71.48,113.418,70.413L113.418,70.413z"/>
	<path fill="#003359" d="M95.595,74.357c1.465-0.846,3.384-0.339,4.288,1.131c0.846,1.522,0.339,3.436-1.13,4.282
		c-1.465,0.847-3.384,0.338-4.283-1.126C93.624,77.18,94.131,75.261,95.595,74.357L95.595,74.357z"/>
	<path fill="#003359" d="M87.195,78.586c1.237-0.73,2.76-0.281,3.495,0.903c0.736,1.243,0.28,2.819-0.904,3.495
		c-1.237,0.735-2.76,0.286-3.495-0.898C85.556,80.901,86.011,79.321,87.195,78.586L87.195,78.586z"/>
	<path fill="#003359" d="M78.789,84c1.015-0.619,2.369-0.222,2.993,0.793c0.618,1.015,0.222,2.369-0.793,2.987
		c-1.015,0.619-2.368,0.228-2.987-0.788C77.382,85.978,77.721,84.566,78.789,84L78.789,84z"/>
	<path fill="#003359" d="M70.615,90.884c0.899-0.566,2.142-0.228,2.649,0.729c0.565,0.962,0.227,2.146-0.677,2.654
		s-2.141,0.222-2.649-0.735C69.373,92.628,69.711,91.444,70.615,90.884L70.615,90.884z"/>
	<path fill="#003359" d="M63.171,99.342c0.729-0.396,1.634-0.168,2.03,0.561c0.392,0.735,0.169,1.645-0.564,2.025
		c-0.736,0.403-1.633,0.169-2.031-0.55C62.208,100.638,62.495,99.734,63.171,99.342L63.171,99.342z"/>
	<path fill="#003359" d="M110.314,61.499c1.861-0.677,3.891,0.338,4.568,2.199c0.676,1.861-0.339,3.95-2.2,4.568
		c-1.861,0.677-3.891-0.338-4.567-2.199C107.438,64.206,108.454,62.176,110.314,61.499L110.314,61.499z"/>
	<path fill="#003359" d="M119.392,62.123c2.03-0.735,4.229,0.338,4.906,2.368c0.677,2.03-0.338,4.229-2.368,4.959
		c-2.03,0.734-4.23-0.338-4.906-2.369C116.347,65.052,117.362,62.8,119.392,62.123L119.392,62.123z"/>
	<path fill="#003359" d="M101.121,62.631c1.638-0.566,3.384,0.279,4.007,1.914c0.561,1.638-0.286,3.441-1.918,4.006
		c-1.634,0.561-3.384-0.285-4.002-1.918C98.641,64.999,99.487,63.249,101.121,62.631L101.121,62.631z"/>
	<path fill="#003359" d="M92.102,65.221c1.354-0.449,2.759,0.228,3.267,1.581c0.455,1.354-0.222,2.818-1.576,3.273
		c-1.354,0.449-2.765-0.227-3.273-1.581C90.071,67.198,90.8,65.728,92.102,65.221L92.102,65.221z"/>
	<path fill="#003359" d="M82.796,68.943c1.126-0.392,2.369,0.169,2.76,1.353c0.396,1.132-0.169,2.369-1.354,2.766
		c-1.126,0.396-2.369-0.169-2.76-1.353C81.104,70.582,81.665,69.339,82.796,68.943L82.796,68.943z"/>
	<path fill="#003359" d="M73.544,74.188c1.015-0.338,2.147,0.17,2.485,1.184c0.338,1.016-0.169,2.147-1.184,2.485
		c-1.016,0.339-2.147-0.169-2.485-1.184C72.021,75.657,72.529,74.584,73.544,74.188L73.544,74.188z"/>
	<path fill="#003359" d="M64.636,81.071c0.787-0.285,1.633,0.111,1.918,0.898c0.281,0.793-0.115,1.639-0.903,1.919
		c-0.789,0.28-1.633-0.111-1.92-0.904C63.51,82.198,63.9,81.351,64.636,81.071L64.636,81.071z"/>
	<path fill="#003359" d="M117.531,53.436c1.978-0.338,3.781,0.958,4.177,2.935c0.338,1.972-0.962,3.833-2.876,4.171
		c-1.919,0.338-3.78-0.957-4.177-2.934C114.264,55.635,115.618,53.775,117.531,53.436L117.531,53.436z"/>
	<path fill="#003359" d="M126.445,55.466c2.083-0.396,4.112,1.015,4.452,3.156c0.337,2.147-1.016,4.12-3.098,4.517
		c-2.089,0.391-4.12-1.016-4.458-3.163C122.945,57.835,124.356,55.864,126.445,55.466L126.445,55.466z"/>
	<path fill="#003359" d="M108.343,53.041c1.691-0.28,3.325,0.846,3.605,2.538c0.286,1.691-0.846,3.33-2.538,3.61
		c-1.691,0.28-3.325-0.846-3.607-2.538C105.52,54.958,106.65,53.379,108.343,53.041L108.343,53.041z"/>
	<path fill="#003359" d="M98.979,54.112c1.412-0.226,2.707,0.678,2.986,2.089c0.229,1.406-0.676,2.707-2.083,2.987
		c-1.411,0.228-2.707-0.677-2.992-2.088C96.669,55.747,97.626,54.394,98.979,54.112L98.979,54.112z"/>
	<path fill="#003359" d="M89.226,56.255c1.184-0.223,2.31,0.565,2.537,1.749c0.222,1.185-0.566,2.311-1.75,2.539
		c-1.184,0.228-2.31-0.566-2.538-1.75C87.305,57.608,88.094,56.481,89.226,56.255L89.226,56.255z"/>
	<path fill="#003359" d="M79.244,59.976c1.068-0.169,2.083,0.508,2.252,1.582c0.168,1.073-0.508,2.088-1.576,2.257
		c-1.073,0.169-2.088-0.507-2.257-1.581C77.494,61.161,78.17,60.146,79.244,59.976L79.244,59.976z"/>
	<path fill="#003359" d="M69.373,65.337c0.788-0.169,1.581,0.391,1.691,1.184c0.17,0.789-0.396,1.576-1.184,1.745
		c-0.788,0.169-1.582-0.392-1.692-1.184C68.077,66.294,68.584,65.448,69.373,65.337L69.373,65.337z"/>
	<path fill="#003359" d="M126.387,46.389c1.971,0,3.553,1.634,3.553,3.606c0,1.977-1.582,3.61-3.553,3.61
		c-1.972,0-3.553-1.633-3.553-3.61C122.834,48.022,124.415,46.389,126.387,46.389L126.387,46.389z"/>
	<path fill="#003359" d="M134.677,49.884c2.088,0,3.78,1.75,3.78,3.892c0,2.141-1.692,3.891-3.78,3.891
		c-2.089,0-3.78-1.75-3.78-3.891C130.897,51.633,132.588,49.884,134.677,49.884L134.677,49.884z"/>
	<path fill="#003359" d="M117.309,44.243c1.745,0,3.215,1.411,3.215,3.215c0,1.807-1.412,3.213-3.215,3.213
		c-1.75,0-3.215-1.406-3.215-3.213C114.094,45.654,115.559,44.243,117.309,44.243L117.309,44.243z"/>
	<path fill="#003359" d="M107.946,43.682c1.412,0,2.538,1.184,2.538,2.648s-1.125,2.649-2.538,2.649s-2.538-1.185-2.538-2.649
		C105.409,44.808,106.534,43.682,107.946,43.682L107.946,43.682z"/>
	<path fill="#003359" d="M97.964,44.021c1.243,0,2.199,1.015,2.199,2.251c0,1.243-1.015,2.258-2.199,2.258
		c-1.242,0-2.2-1.016-2.2-2.258C95.765,45.036,96.722,44.021,97.964,44.021L97.964,44.021z"/>
	<path fill="#003359" d="M87.417,45.992c1.072,0,1.919,0.845,1.919,1.92c0,1.067-0.847,1.913-1.919,1.913
		c-1.068,0-1.915-0.846-1.915-1.913C85.503,46.837,86.35,45.992,87.417,45.992L87.417,45.992z"/>
	<path fill="#003359" d="M76.817,49.488c0.846,0,1.521,0.676,1.521,1.469c0,0.787-0.676,1.465-1.521,1.465
		c-0.846,0-1.522-0.678-1.522-1.465C75.294,50.164,75.913,49.488,76.817,49.488L76.817,49.488z"/>
	<path fill="#003359" d="M136.2,41.367c1.972,0.337,3.272,2.199,2.934,4.176c-0.338,1.972-2.199,3.268-4.119,2.929
		c-1.972-0.338-3.272-2.2-2.934-4.171C132.366,42.329,134.227,41.028,136.2,41.367L136.2,41.367z"/>
	<path fill="#003359" d="M143.87,46.272c2.084,0.339,3.496,2.369,3.157,4.457c-0.339,2.089-2.368,3.554-4.457,3.157
		c-2.084-0.339-3.495-2.368-3.157-4.452C139.752,47.345,141.782,45.935,143.87,46.272L143.87,46.272z"/>
	<path fill="#003359" d="M127.629,37.872c1.692,0.28,2.818,1.919,2.538,3.61c-0.285,1.692-1.919,2.876-3.611,2.539
		c-1.692-0.286-2.818-1.919-2.537-3.611C124.298,38.718,125.937,37.591,127.629,37.872L127.629,37.872z"/>
	<path fill="#003359" d="M118.493,35.73c1.407,0.222,2.311,1.576,2.083,2.929c-0.223,1.411-1.576,2.315-2.928,2.089
		c-1.354-0.229-2.317-1.581-2.089-2.936C115.786,36.407,117.082,35.503,118.493,35.73L118.493,35.73z"/>
	<path fill="#003359" d="M108.564,34.43c1.185,0.228,1.978,1.354,1.809,2.539c-0.228,1.184-1.301,1.977-2.485,1.807
		c-1.185-0.227-1.972-1.354-1.803-2.537C106.254,35.053,107.38,34.208,108.564,34.43L108.564,34.43z"/>
	<path fill="#003359" d="M97.906,34.488c1.074,0.169,1.75,1.185,1.581,2.258c-0.169,1.067-1.184,1.803-2.257,1.575
		c-1.068-0.169-1.745-1.185-1.576-2.253C95.875,35.053,96.838,34.319,97.906,34.488L97.906,34.488z"/>
	<path fill="#003359" d="M86.857,36.179c0.787,0.112,1.353,0.904,1.237,1.693c-0.111,0.788-0.899,1.354-1.691,1.242
		c-0.789-0.117-1.354-0.904-1.238-1.692C85.275,36.576,86.011,36.068,86.857,36.179L86.857,36.179z"/>
	<path fill="#003359" d="M146.461,37.872c1.861,0.677,2.822,2.765,2.088,4.626c-0.735,1.86-2.765,2.817-4.627,2.141
		c-1.86-0.677-2.817-2.765-2.083-4.626C142.57,38.152,144.601,37.137,146.461,37.872L146.461,37.872z"/>
	<path fill="#003359" d="M153.118,44.132c1.971,0.734,2.986,2.987,2.257,4.964c-0.735,2.03-2.992,3.045-4.964,2.311
		c-1.972-0.736-2.987-2.988-2.257-4.965C148.888,44.412,151.087,43.396,153.118,44.132L153.118,44.132z"/>
	<path fill="#003359" d="M138.737,32.854c1.633,0.619,2.426,2.422,1.861,4.002c-0.619,1.633-2.369,2.426-4.003,1.861
		c-1.639-0.619-2.427-2.427-1.861-4.002C135.295,33.134,137.104,32.23,138.737,32.854L138.737,32.854z"/>
	<path fill="#003359" d="M130.109,29.016c1.295,0.507,1.972,1.978,1.522,3.273c-0.507,1.354-1.972,2.03-3.273,1.522
		c-1.294-0.507-1.971-1.971-1.522-3.273C127.343,29.186,128.814,28.509,130.109,29.016L130.109,29.016z"/>
	<path fill="#003359" d="M120.635,25.859c1.126,0.397,1.692,1.693,1.295,2.818c-0.391,1.132-1.692,1.691-2.818,1.301
		c-1.127-0.396-1.693-1.692-1.296-2.823C118.208,26.029,119.508,25.463,120.635,25.859L120.635,25.859z"/>
	<path fill="#003359" d="M110.145,23.941c1.016,0.396,1.522,1.522,1.126,2.537c-0.391,1.015-1.465,1.523-2.479,1.131
		c-1.015-0.397-1.522-1.522-1.126-2.537C108.004,24.111,109.13,23.603,110.145,23.941L110.145,23.941z"/>
	<path fill="#003359" d="M98.921,23.55c0.793,0.28,1.185,1.126,0.846,1.914c-0.28,0.793-1.126,1.184-1.914,0.904
		c-0.793-0.28-1.184-1.126-0.846-1.919C97.346,23.66,98.192,23.264,98.921,23.55L98.921,23.55z"/>
	<path fill="#003359" d="M157.347,36.519c1.692,1.015,2.258,3.215,1.243,4.906c-1.016,1.692-3.215,2.257-4.907,1.242
		c-1.691-1.015-2.257-3.215-1.243-4.906C153.456,36.068,155.655,35.503,157.347,36.519L157.347,36.519z"/>
	<path fill="#003359" d="M162.76,43.904c1.798,1.073,2.432,3.5,1.354,5.303c-1.078,1.861-3.44,2.427-5.303,1.354
		c-1.802-1.072-2.42-3.494-1.353-5.302C158.531,43.396,160.899,42.836,162.76,43.904L162.76,43.904z"/>
	<path fill="#003359" d="M150.638,30.201c1.464,0.904,1.972,2.822,1.068,4.287c-0.898,1.465-2.818,1.972-4.282,1.074
		c-1.47-0.904-1.978-2.824-1.074-4.288C147.254,29.81,149.115,29.301,150.638,30.201L150.638,30.201z"/>
	<path fill="#003359" d="M142.856,24.844c1.184,0.736,1.633,2.311,0.898,3.495c-0.729,1.244-2.311,1.64-3.494,0.905
		c-1.185-0.735-1.634-2.31-0.905-3.495C140.091,24.565,141.671,24.168,142.856,24.844L142.856,24.844z"/>
	<path fill="#003359" d="M134.111,20.05c1.015,0.625,1.354,1.977,0.735,2.992s-1.972,1.354-2.987,0.729
		c-1.015-0.619-1.354-1.972-0.735-2.987C131.742,19.769,133.042,19.432,134.111,20.05L134.111,20.05z"/>
	<path fill="#003359" d="M124.129,16.274c0.905,0.561,1.243,1.745,0.677,2.707c-0.56,0.899-1.745,1.237-2.648,0.677
		c-0.904-0.566-1.243-1.75-0.678-2.708C121.987,16.047,123.172,15.709,124.129,16.274L124.129,16.274z"/>
	<path fill="#003359" d="M113.19,13.848c0.678,0.396,0.958,1.354,0.508,2.029c-0.396,0.736-1.354,0.958-2.03,0.508
		c-0.676-0.396-0.957-1.353-0.507-2.031C111.557,13.678,112.456,13.399,113.19,13.848L113.19,13.848z"/>
	<path fill="#003359" d="M168.619,36.01c1.522,1.242,1.756,3.554,0.506,5.076c-1.226,1.523-3.488,1.75-5.012,0.508
		c-1.521-1.243-1.755-3.553-0.507-5.076C164.854,34.996,167.097,34.716,168.619,36.01L168.619,36.01z"/>
	<path fill="#003359" d="M172.849,44.132c1.648,1.353,1.86,3.78,0.506,5.471c-1.354,1.692-3.765,1.915-5.414,0.508
		c-1.627-1.354-1.859-3.781-0.506-5.472C168.788,43.006,171.22,42.778,172.849,44.132L172.849,44.132z"/>
	<path fill="#003359" d="M162.93,28.678c1.354,1.132,1.522,3.103,0.444,4.399c-1.059,1.353-3.04,1.522-4.394,0.454
		c-1.354-1.131-1.523-3.103-0.449-4.398C159.657,27.779,161.641,27.61,162.93,28.678L162.93,28.678z"/>
	<path fill="#003359" d="M156.052,22.249c1.067,0.904,1.237,2.539,0.338,3.611c-0.904,1.074-2.485,1.243-3.611,0.339
		c-1.074-0.904-1.243-2.539-0.339-3.611C153.345,21.519,154.978,21.403,156.052,22.249L156.052,22.249z"/>
	<path fill="#003359" d="M148.101,16.217c0.898,0.788,1.068,2.141,0.28,3.045c-0.788,0.957-2.142,1.073-3.045,0.281
		c-0.905-0.789-1.073-2.142-0.28-3.046C145.842,15.598,147.195,15.429,148.101,16.217L148.101,16.217z"/>
	<path fill="#003359" d="M138.848,10.914c0.846,0.676,0.962,1.919,0.285,2.764c-0.676,0.846-1.918,0.958-2.765,0.281
		c-0.846-0.677-0.958-1.914-0.281-2.761C136.765,10.353,138.002,10.237,138.848,10.914L138.848,10.914z"/>
	<path fill="#003359" d="M128.358,6.854c0.624,0.507,0.736,1.469,0.228,2.089c-0.507,0.618-1.464,0.734-2.089,0.227
		c-0.618-0.507-0.729-1.47-0.221-2.088C126.784,6.463,127.739,6.346,128.358,6.854L128.358,6.854z"/>
	<path fill="#003359" d="M179.403,38.379c1.227,1.522,1.059,3.78-0.466,5.075c-1.521,1.295-3.764,1.074-5.012-0.449
		c-1.246-1.523-1.077-3.78,0.445-5.076C175.895,36.629,178.156,36.857,179.403,38.379L179.403,38.379z"/>
	<path fill="#003359" d="M182.048,47.177c1.353,1.634,1.121,4.06-0.508,5.472c-1.627,1.353-4.061,1.126-5.413-0.507
		c-1.354-1.639-1.122-4.061,0.506-5.473C178.219,45.315,180.693,45.485,182.048,47.177L182.048,47.177z"/>
	<path fill="#003359" d="M175.112,30.147c1.121,1.354,0.908,3.326-0.403,4.398c-1.288,1.127-3.257,0.958-4.397-0.396
		c-1.122-1.354-0.89-3.325,0.4-4.399C172.066,28.625,174.032,28.794,175.112,30.147L175.112,30.147z"/>
	<path fill="#003359" d="M169.59,22.535c0.89,1.068,0.722,2.707-0.337,3.605c-1.078,0.904-2.706,0.794-3.616-0.338
		c-0.909-1.126-0.74-2.707,0.339-3.605C167.055,21.292,168.682,21.461,169.59,22.535L169.59,22.535z"/>
	<path fill="#003359" d="M162.866,15.09c0.804,0.899,0.635,2.311-0.274,3.099c-0.909,0.792-2.311,0.676-3.045-0.28
		c-0.736-0.958-0.619-2.311,0.279-3.104C160.73,14.075,162.083,14.186,162.866,15.09L162.866,15.09z"/>
	<path fill="#003359" d="M154.699,8.207c0.676,0.846,0.56,2.089-0.228,2.766c-0.788,0.677-2.03,0.566-2.765-0.228
		c-0.729-0.788-0.561-2.083,0.228-2.76C152.779,7.25,154.022,7.361,154.699,8.207L154.699,8.207z"/>
	<path fill="#003359" d="M145.166,2.286c0.507,0.623,0.45,1.581-0.169,2.088c-0.618,0.508-1.581,0.449-2.088-0.169
		c-0.508-0.619-0.449-1.581,0.17-2.088C143.754,1.556,144.659,1.609,145.166,2.286L145.166,2.286z"/>
	<path fill="#003359" d="M189.385,43.174c0.951,1.745,0.339,3.945-1.415,4.907c-1.756,0.956-3.892,0.338-4.845-1.412
		c-0.972-1.75-0.337-3.949,1.396-4.906C186.214,40.806,188.412,41.425,189.385,43.174L189.385,43.174z"/>
	<path fill="#003359" d="M190.336,52.31c1.017,1.862,0.402,4.23-1.456,5.298c-1.863,1.014-4.231,0.396-5.246-1.522
		c-1.016-1.914-0.402-4.229,1.459-5.297C186.955,49.714,189.322,50.391,190.336,52.31L190.336,52.31z"/>
	<path fill="#003359" d="M186.72,34.261c0.847,1.522,0.297,3.442-1.184,4.288c-1.521,0.846-3.383,0.28-4.229-1.184
		c-0.845-1.465-0.274-3.442,1.185-4.288C183.972,32.23,185.875,32.796,186.72,34.261L186.72,34.261z"/>
	<path fill="#003359" d="M182.66,25.802c0.677,1.242,0.233,2.823-0.952,3.5c-1.246,0.677-2.771,0.222-3.489-1.015
		c-0.739-1.242-0.23-2.823,0.954-3.499C180.419,24.111,181.984,24.565,182.66,25.802L182.66,25.802z"/>
	<path fill="#003359" d="M177.479,17.232c0.571,1.073,0.232,2.368-0.847,2.987c-1.077,0.565-2.368,0.227-2.939-0.846
		c-0.549-1.067-0.211-2.368,0.847-2.987C175.556,15.768,176.867,16.158,177.479,17.232L177.479,17.232z"/>
	<path fill="#003359" d="M170.712,8.884c0.508,0.962,0.168,2.146-0.74,2.654c-0.95,0.507-2.136,0.169-2.642-0.735
		c-0.51-0.904-0.171-2.141,0.739-2.649C168.956,7.647,170.205,7.985,170.712,8.884L170.712,8.884z"/>
	<path fill="#003359" d="M162.485,1.27c0.381,0.735,0.17,1.639-0.571,2.031c-0.74,0.396-1.633,0.168-2.029-0.561
		c-0.396-0.735-0.169-1.639,0.564-2.031C161.174,0.313,162.083,0.594,162.485,1.27L162.485,1.27z"/>
	<path fill="#003359" d="M199.579,48.588c0.741,1.861-0.211,3.945-2.03,4.621c-1.86,0.734-3.892-0.222-4.609-2.083
		c-0.741-1.861,0.21-3.949,2.03-4.626C196.766,45.823,198.901,46.727,199.579,48.588L199.579,48.588z"/>
	<path fill="#003359" d="M199.303,57.777c0.784,1.977-0.231,4.229-2.198,5.022c-1.968,0.788-4.229-0.227-4.97-2.2
		c-0.782-1.978,0.231-4.229,2.199-5.022C196.323,54.79,198.521,55.747,199.303,57.777L199.303,57.777z"/>
	<path fill="#003359" d="M198.183,39.452c0.613,1.634-0.169,3.437-1.818,4.061c-1.564,0.619-3.425-0.17-4.061-1.809
		c-0.613-1.634,0.168-3.437,1.818-4.061C195.752,37.026,197.549,37.813,198.183,39.452L198.183,39.452z"/>
	<path fill="#003359" d="M195.35,30.428c0.507,1.294-0.17,2.817-1.459,3.325c-1.29,0.508-2.813-0.169-3.32-1.464
		c-0.508-1.295,0.168-2.817,1.457-3.325C193.319,28.456,194.841,29.132,195.35,30.428L195.35,30.428z"/>
	<path fill="#003359" d="M191.417,21.234c0.442,1.131-0.128,2.368-1.248,2.823c-1.122,0.45-2.369-0.116-2.813-1.243
		c-0.465-1.125,0.104-2.369,1.227-2.818C189.724,19.542,190.951,20.108,191.417,21.234L191.417,21.234z"/>
	<path fill="#003359" d="M185.875,12.045c0.401,1.015-0.105,2.141-1.121,2.538c-1.014,0.392-2.136-0.116-2.537-1.131
		c-0.402-1.015,0.104-2.141,1.12-2.538C184.352,10.523,185.494,11.03,185.875,12.045L185.875,12.045z"/>
	<path fill="#003359" d="M178.77,3.358c0.296,0.788-0.107,1.634-0.848,1.919c-0.78,0.281-1.626-0.116-1.901-0.846
		c-0.297-0.792,0.106-1.639,0.847-1.919C177.648,2.175,178.494,2.571,178.77,3.358L178.77,3.358z"/>
	<path fill="#003359" d="M207.487,56.085c0.339,1.978-1.015,3.838-2.939,4.118c-1.925,0.28-3.784-1.015-4.123-2.986
		c-0.338-1.979,1.017-3.838,2.939-4.119C205.331,52.76,207.193,54.112,207.487,56.085L207.487,56.085z"/>
	<path fill="#003359" d="M205.331,64.999c0.339,2.083-1.058,4.114-3.152,4.452c-2.092,0.338-4.06-1.068-4.461-3.215
		c-0.338-2.083,1.078-4.113,3.172-4.451C202.963,61.446,204.991,62.852,205.331,64.999L205.331,64.999z"/>
	<path fill="#003359" d="M207.997,46.837c0.273,1.693-0.911,3.327-2.603,3.612c-1.691,0.28-3.321-0.904-3.616-2.596
		c-0.274-1.692,0.91-3.325,2.602-3.61C206.135,43.962,207.699,45.089,207.997,46.837L207.997,46.837z"/>
	<path fill="#003359" d="M207.021,37.422c0.234,1.407-0.717,2.708-2.071,2.93c-1.417,0.227-2.705-0.729-2.939-2.141
		c-0.232-1.412,0.739-2.707,2.093-2.934C205.501,35.106,206.812,36.01,207.021,37.422L207.021,37.422z"/>
	<path fill="#003359" d="M205.056,27.61c0.17,1.184-0.614,2.311-1.797,2.479c-1.186,0.169-2.327-0.618-2.495-1.803
		c-0.17-1.184,0.634-2.315,1.817-2.484C203.766,25.633,204.887,26.426,205.056,27.61L205.056,27.61z"/>
	<path fill="#003359" d="M201.566,17.512c0.169,1.072-0.571,2.088-1.586,2.257c-1.079,0.169-2.094-0.565-2.263-1.633
		c-0.169-1.074,0.571-2.088,1.585-2.258C200.383,15.709,201.334,16.444,201.566,17.512L201.566,17.512z"/>
	<path fill="#003359" d="M196.364,7.477c0.126,0.789-0.38,1.576-1.228,1.692c-0.846,0.111-1.585-0.396-1.689-1.242
		c-0.128-0.788,0.38-1.582,1.226-1.692C195.477,6.124,196.195,6.685,196.364,7.477L196.364,7.477z"/>
	<path fill="#003359" d="M214.468,65.11c0,1.972-1.565,3.611-3.555,3.611c-1.967,0-3.551-1.639-3.551-3.611
		c0-1.971,1.584-3.611,3.551-3.611C212.902,61.499,214.468,63.139,214.468,65.11L214.468,65.11z"/>
	<path fill="#003359" d="M210.809,73.569c0,2.142-1.756,3.891-3.893,3.891c-2.135,0-3.891-1.75-3.891-3.891
		c0-2.141,1.756-3.891,3.891-3.891C209.053,69.678,210.809,71.428,210.809,73.569L210.809,73.569z"/>
	<path fill="#003359" d="M216.391,56.085c0,1.692-1.417,3.103-3.107,3.103c-1.692,0-3.089-1.411-3.089-3.103
		c0-1.691,1.396-3.098,3.089-3.098C214.974,52.987,216.391,54.394,216.391,56.085L216.391,56.085z"/>
	<path fill="#003359" d="M216.963,46.669c0,1.465-1.144,2.649-2.538,2.649c-1.417,0-2.539-1.184-2.539-2.649
		c0-1.464,1.122-2.648,2.539-2.648C215.819,44.021,216.963,45.205,216.963,46.669L216.963,46.669z"/>
	<path fill="#003359" d="M216.561,36.688c0,1.184-0.953,2.141-2.136,2.141c-1.185,0-2.158-0.957-2.158-2.141
		c0-1.185,0.974-2.142,2.158-2.142C215.607,34.546,216.561,35.503,216.561,36.688L216.561,36.688z"/>
	<path fill="#003359" d="M214.636,26.087c0,1.125-0.847,2.03-1.903,2.03c-1.078,0-1.924-0.905-1.924-2.03
		c0-1.131,0.846-2.03,1.924-2.03C213.789,24.057,214.636,24.956,214.636,26.087L214.636,26.087z"/>
	<path fill="#003359" d="M211.146,15.371c0,0.788-0.676,1.465-1.459,1.465c-0.804,0-1.481-0.677-1.481-1.465
		s0.678-1.464,1.481-1.464C210.471,13.906,211.146,14.583,211.146,15.371L211.146,15.371z"/>
	<path fill="#003359" d="M220.049,74.864c-0.337,1.977-2.198,3.272-4.166,2.877c-1.926-0.339-3.214-2.2-2.875-4.172
		c0.338-1.972,2.2-3.273,4.166-2.876C219.098,71.032,220.388,72.893,220.049,74.864L220.049,74.864z"/>
	<path fill="#003359" d="M215.038,82.478c-0.402,2.088-2.369,3.5-4.505,3.103c-2.093-0.396-3.512-2.426-3.108-4.509
		c0.401-2.088,2.368-3.5,4.504-3.104C214.024,78.364,215.377,80.395,215.038,82.478L215.038,82.478z"/>
	<path fill="#003359" d="M223.603,66.294c-0.276,1.692-1.903,2.818-3.596,2.539c-1.691-0.281-2.833-1.92-2.537-3.665
		c0.274-1.692,1.903-2.823,3.596-2.537C222.755,62.969,223.899,64.603,223.603,66.294L223.603,66.294z"/>
	<path fill="#003359" d="M225.802,57.101c-0.211,1.411-1.564,2.315-2.98,2.088c-1.419-0.228-2.306-1.581-2.032-2.987
		c0.276-1.412,1.587-2.315,2.982-2.089C225.188,54.394,226.098,55.747,225.802,57.101L225.802,57.101z"/>
	<path fill="#003359" d="M227.22,47.177c-0.233,1.184-1.354,1.972-2.539,1.75c-1.185-0.227-1.966-1.354-1.755-2.538
		c0.232-1.184,1.354-1.977,2.538-1.75S227.451,45.992,227.22,47.177L227.22,47.177z"/>
	<path fill="#003359" d="M227.282,36.46c-0.169,1.073-1.185,1.75-2.263,1.581c-1.078-0.169-1.755-1.184-1.586-2.257
		c0.169-1.068,1.185-1.745,2.263-1.576S227.494,35.392,227.282,36.46L227.282,36.46z"/>
	<path fill="#003359" d="M225.76,25.294c-0.169,0.793-0.91,1.353-1.755,1.184c-0.783-0.169-1.354-0.898-1.184-1.745
		c0.169-0.792,0.908-1.354,1.755-1.184C225.356,23.719,225.866,24.507,225.76,25.294L225.76,25.294z"/>
	<path fill="#003359" d="M223.158,85.523c-0.677,1.86-2.707,2.875-4.567,2.199c-1.861-0.677-2.877-2.707-2.2-4.568
		c0.679-1.861,2.707-2.876,4.568-2.2C222.821,81.632,223.836,83.662,223.158,85.523L223.158,85.523z"/>
	<path fill="#003359" d="M217.004,92.29c-0.676,2.03-2.917,3.104-4.905,2.368c-2.031-0.729-3.046-2.929-2.369-4.959
		c0.678-2.029,2.939-3.103,4.906-2.368C216.666,88.061,217.744,90.318,217.004,92.29L217.004,92.29z"/>
	<path fill="#003359" d="M228.002,77.629c-0.551,1.634-2.369,2.479-3.935,1.919c-1.586-0.565-2.496-2.368-1.924-4.007
		c0.571-1.633,2.368-2.479,3.954-1.915C227.726,74.246,228.572,75.996,228.002,77.629L228.002,77.629z"/>
	<path fill="#003359" d="M231.682,68.943c-0.466,1.353-1.925,2.029-3.279,1.581c-1.353-0.449-2.03-1.919-1.585-3.273
		c0.465-1.354,1.925-2.03,3.277-1.576C231.447,66.183,232.124,67.648,231.682,68.943L231.682,68.943z"/>
	<path fill="#003359" d="M234.6,59.357c-0.382,1.126-1.628,1.751-2.75,1.354c-1.14-0.396-1.755-1.633-1.353-2.765
		c0.381-1.126,1.627-1.745,2.749-1.354C234.388,56.989,235.002,58.232,234.6,59.357L234.6,59.357z"/>
	<path fill="#003359" d="M236.29,48.811c-0.338,1.015-1.458,1.581-2.475,1.185c-1.013-0.339-1.522-1.464-1.184-2.48
		c0.34-1.015,1.461-1.581,2.475-1.185C236.122,46.669,236.692,47.795,236.29,48.811L236.29,48.811z"/>
	<path fill="#003359" d="M236.523,37.533c-0.275,0.788-1.12,1.185-1.86,0.904c-0.782-0.286-1.185-1.131-0.909-1.919
		c0.295-0.788,1.142-1.184,1.861-0.905C236.418,35.899,236.8,36.746,236.523,37.533L236.523,37.533z"/>
	<path fill="#003359" d="M224.85,96.688c-0.95,1.75-3.15,2.315-4.904,1.3c-1.691-1.015-2.309-3.213-1.292-4.906
		c1.015-1.691,3.152-2.315,4.907-1.301C225.252,92.797,225.802,94.997,224.85,96.688L224.85,96.688z"/>
	<path fill="#003359" d="M217.575,102.224c-1.077,1.861-3.446,2.475-5.245,1.396c-1.859-1.057-2.475-3.431-1.417-5.292
		c1.079-1.861,3.447-2.485,5.247-1.412C217.978,97.989,218.591,100.357,217.575,102.224L217.575,102.224z"/>
	<path fill="#003359" d="M231.047,89.869c-0.848,1.522-2.749,2.03-4.272,1.125c-1.479-0.846-2.029-2.765-1.142-4.287
		c0.846-1.523,2.77-2.03,4.294-1.127C231.447,86.486,231.893,88.346,231.047,89.869L231.047,89.869z"/>
	<path fill="#003359" d="M236.248,81.97c-0.676,1.242-2.262,1.639-3.509,0.962c-1.227-0.676-1.63-2.257-0.952-3.499
		c0.675-1.237,2.262-1.634,3.489-0.958C236.523,79.152,236.926,80.732,236.248,81.97L236.248,81.97z"/>
	<path fill="#003359" d="M240.859,73.12c-0.614,1.068-1.904,1.406-2.982,0.788c-1.016-0.619-1.416-1.919-0.783-2.988
		c0.615-1.072,1.905-1.411,2.983-0.793C241.091,70.75,241.493,72.047,240.859,73.12L240.859,73.12z"/>
	<path fill="#003359" d="M244.476,63.021c-0.572,0.963-1.756,1.243-2.645,0.735c-0.972-0.565-1.246-1.75-0.74-2.648
		c0.508-0.905,1.756-1.243,2.645-0.735C244.645,60.88,245.046,62.065,244.476,63.021L244.476,63.021z"/>
	<path fill="#003359" d="M246.78,51.972c-0.381,0.729-1.29,0.957-2.03,0.561c-0.719-0.392-0.951-1.297-0.549-2.031
		c0.38-0.729,1.289-0.958,2.029-0.561C246.949,50.333,247.182,51.296,246.78,51.972L246.78,51.972z"/>
	<path fill="#003359" d="M224.745,108.019c-1.249,1.522-3.512,1.754-5.033,0.465c-1.523-1.311-1.734-3.553-0.444-5.075
		c1.248-1.523,3.487-1.755,5.012-0.466C225.802,104.254,225.972,106.496,224.745,108.019L224.745,108.019z"/>
	<path fill="#003359" d="M216.623,112.206c-1.353,1.627-3.784,1.86-5.412,0.507c-1.65-1.354-1.861-3.849-0.509-5.478
		c1.354-1.628,3.766-1.86,5.414-0.507C217.744,108.146,217.978,110.556,216.623,112.206L216.623,112.206z"/>
	<path fill="#003359" d="M232.02,102.331c-1.142,1.353-3.046,1.522-4.398,0.401c-1.311-1.143-1.523-3.109-0.401-4.404
		c1.12-1.354,3.044-1.523,4.399-0.396C232.907,99.058,233.141,101.04,232.02,102.331L232.02,102.331z"/>
	<path fill="#003359" d="M238.448,95.451c-0.909,1.068-2.538,1.237-3.616,0.338c-1.078-0.903-1.248-2.537-0.338-3.61
		c0.909-1.074,2.537-1.243,3.616-0.338C239.167,92.745,239.336,94.378,238.448,95.451L238.448,95.451z"/>
	<path fill="#003359" d="M244.538,87.5c-0.803,0.898-2.156,1.068-3.045,0.28c-0.908-0.788-1.078-2.141-0.297-3.103
		c0.804-0.899,2.158-1.069,3.046-0.281C245.152,85.243,245.322,86.596,244.538,87.5L244.538,87.5z"/>
	<path fill="#003359" d="M249.826,78.195c-0.678,0.846-1.905,0.957-2.748,0.222c-0.848-0.676-0.976-1.914-0.234-2.76
		c0.739-0.845,1.925-0.961,2.771-0.227S250.502,77.402,249.826,78.195L249.826,78.195z"/>
	<path fill="#003359" d="M253.949,67.758c-0.507,0.625-1.46,0.735-2.094,0.169c-0.612-0.507-0.718-1.464-0.17-2.083
		c0.572-0.624,1.482-0.735,2.094-0.17C254.394,66.183,254.457,67.082,253.949,67.758L253.949,67.758z"/>
	<path fill="#003359" d="M222.08,119.015c-1.522,1.311-3.765,1.078-5.011-0.443c-1.291-1.523-1.081-3.786,0.443-5.076
		c1.522-1.29,3.784-1.079,5.032,0.444C223.771,115.462,223.561,117.79,222.08,119.015L222.08,119.015z"/>
	<path fill="#003359" d="M213.346,121.723c-1.629,1.355-4.06,1.184-5.413-0.443c-1.354-1.629-1.185-4.061,0.444-5.479
		c1.648-1.395,4.06-1.184,5.412,0.467C215.145,117.894,214.974,120.369,213.346,121.723L213.346,121.723z"/>
	<path fill="#003359" d="M230.199,114.744c-1.288,1.121-3.255,0.951-4.397-0.402c-1.121-1.29-0.952-3.32,0.401-4.398
		c1.291-1.12,3.279-0.952,4.399,0.403C231.724,111.634,231.554,113.601,230.199,114.744L230.199,114.744z"/>
	<path fill="#003359" d="M237.771,109.097c-1.078,0.909-2.706,0.782-3.616-0.274c-0.908-1.079-0.782-2.708,0.276-3.616
		c1.077-0.91,2.706-0.783,3.615,0.274C238.955,106.56,238.83,108.188,237.771,109.097L237.771,109.097z"/>
	<path fill="#003359" d="M245.152,102.331c-0.91,0.782-2.306,0.676-3.045-0.275c-0.781-0.909-0.678-2.321,0.274-3.109
		c0.973-0.788,2.325-0.677,3.046,0.28C246.169,100.188,246.062,101.547,245.152,102.331L245.152,102.331z"/>
	<path fill="#003359" d="M251.982,94.098c-0.845,0.678-2.029,0.561-2.77-0.227c-0.678-0.846-0.572-2.089,0.232-2.766
		c0.846-0.676,2.031-0.559,2.749,0.229C252.935,92.121,252.765,93.422,251.982,94.098L251.982,94.098z"/>
	<path fill="#003359" d="M257.84,84.508c-0.611,0.507-1.586,0.455-2.094-0.17c-0.506-0.619-0.443-1.575,0.17-2.083
		c0.634-0.507,1.587-0.454,2.094,0.169C258.518,83.043,258.454,84,257.84,84.508L257.84,84.508z"/>
	<path fill="#003359" d="M218.083,128.998c-1.692,1.014-3.891,0.465-4.906-1.227c-1.015-1.693-0.444-3.891,1.248-4.969
		c1.691-1.08,3.891-0.445,4.906,1.246C220.346,125.74,219.775,127.939,218.083,128.998L218.083,128.998z"/>
	<path fill="#003359" d="M209.053,130.244c-1.797,1.121-4.166,0.51-5.287-1.289c-1.077-1.859-0.507-4.229,1.29-5.309
		c1.798-1.078,4.166-0.506,5.309,1.291C211.485,126.756,210.871,129.125,209.053,130.244L209.053,130.244z"/>
	<path fill="#003359" d="M226.817,126.016c-1.461,0.91-3.384,0.402-4.272-1.078c-0.91-1.459-0.401-3.385,1.058-4.272
		c1.48-0.91,3.384-0.402,4.293,1.057C228.805,123.203,228.34,125.105,226.817,126.016L226.817,126.016z"/>
	<path fill="#003359" d="M235.17,121.682c-1.184,0.717-2.77,0.338-3.488-0.911c-0.741-1.249-0.339-2.771,0.846-3.49
		c1.185-0.739,2.749-0.338,3.489,0.889C236.756,119.354,236.354,120.939,235.17,121.682L235.17,121.682z"/>
	<path fill="#003359" d="M243.522,116.14c-1.013,0.634-2.367,0.295-3.001-0.72c-0.615-1.015-0.276-2.369,0.738-3.003
		c1.017-0.614,2.369-0.274,2.982,0.74C244.876,114.172,244.538,115.526,243.522,116.14L243.522,116.14z"/>
	<path fill="#003359" d="M251.58,109.097c-0.909,0.571-2.135,0.274-2.645-0.676c-0.505-0.952-0.295-2.137,0.679-2.708
		c0.888-0.57,2.136-0.274,2.644,0.677C252.765,107.342,252.489,108.526,251.58,109.097L251.58,109.097z"/>
	<path fill="#003359" d="M258.857,100.58c-0.679,0.46-1.629,0.164-2.032-0.508c-0.402-0.676-0.17-1.633,0.509-2.029
		c0.676-0.45,1.628-0.169,2.028,0.507C259.765,99.226,259.596,100.131,258.857,100.58L258.857,100.58z"/>
	<path fill="#003359" d="M212.162,138.768c-1.862,0.719-3.892-0.23-4.631-2.029c-0.72-1.861,0.231-3.953,2.029-4.695
		c1.861-0.721,3.892,0.232,4.632,2.029C214.933,135.893,214.024,138.027,212.162,138.768L212.162,138.768z"/>
	<path fill="#003359" d="M203.088,138.43c-1.986,0.781-4.228-0.232-5.032-2.199c-0.782-1.988,0.233-4.23,2.199-5.033
		c1.99-0.783,4.231,0.23,5.034,2.199C206.071,135.426,205.056,137.689,203.088,138.43L203.088,138.43z"/>
	<path fill="#003359" d="M221.297,137.35c-1.585,0.615-3.446-0.168-4.06-1.795c-0.614-1.65,0.169-3.449,1.798-4.061
		c1.649-0.635,3.446,0.168,4.06,1.795C223.729,134.92,222.926,136.738,221.297,137.35L221.297,137.35z"/>
	<path fill="#003359" d="M230.264,134.475c-1.29,0.506-2.812-0.168-3.319-1.459c-0.508-1.311,0.169-2.834,1.458-3.344
		c1.292-0.504,2.813,0.172,3.321,1.482C232.23,132.445,231.554,133.969,230.264,134.475L230.264,134.475z"/>
	<path fill="#003359" d="M239.401,130.479c-1.121,0.443-2.37-0.127-2.813-1.25c-0.466-1.119,0.104-2.367,1.227-2.811
		c1.141-0.465,2.368,0.104,2.833,1.227C241.091,128.785,240.521,130.076,239.401,130.479L239.401,130.479z"/>
	<path fill="#003359" d="M248.535,124.938c-1.014,0.402-2.136-0.107-2.538-1.119c-0.401-1.016,0.105-2.137,1.121-2.539
		c1.015-0.405,2.157,0.105,2.537,1.119C250.059,123.416,249.552,124.555,248.535,124.938L248.535,124.938z"/>
	<path fill="#003359" d="M257.229,117.79c-0.806,0.274-1.649-0.065-1.926-0.847c-0.275-0.803,0.063-1.65,0.846-1.926
		c0.783-0.273,1.628,0.064,1.924,0.848C258.348,116.646,257.946,117.493,257.229,117.79L257.229,117.79z"/>
	<path fill="#003359" d="M205.501,147.564c-1.968,0.338-3.766-1.014-4.104-3.002c-0.339-1.967,1.016-3.828,2.92-4.102
		c1.987-0.34,3.785,1.014,4.123,2.98C208.778,145.365,207.487,147.227,205.501,147.564L205.501,147.564z"/>
	<path fill="#003359" d="M196.661,145.365c-2.094,0.338-4.061-1.076-4.463-3.213c-0.339-2.094,1.079-4.125,3.151-4.463
		c2.094-0.34,4.061,1.078,4.462,3.215C200.215,143.039,198.734,145.027,196.661,145.365L196.661,145.365z"/>
	<path fill="#003359" d="M214.763,148.072c-1.692,0.275-3.341-0.908-3.616-2.6c-0.275-1.693,0.91-3.32,2.602-3.617
		c1.691-0.275,3.321,0.908,3.595,2.602C217.575,146.148,216.454,147.777,214.763,148.072L214.763,148.072z"/>
	<path fill="#003359" d="M224.067,147.1c-1.416,0.234-2.706-0.719-2.939-2.137c-0.232-1.416,0.741-2.707,2.094-2.938
		c1.396-0.213,2.708,0.738,2.918,2.156C226.372,145.578,225.464,146.887,224.067,147.1L224.067,147.1z"/>
	<path fill="#003359" d="M233.881,145.131c-1.186,0.172-2.327-0.611-2.496-1.795s0.635-2.326,1.818-2.496
		c1.185-0.168,2.305,0.635,2.475,1.818C235.847,143.779,235.064,144.9,233.881,145.131L233.881,145.131z"/>
	<path fill="#003359" d="M243.903,141.58c-1.057,0.17-2.072-0.57-2.24-1.629c-0.17-1.078,0.549-2.094,1.563-2.262
		c1.016-0.17,2.096,0.57,2.264,1.629C245.724,140.396,244.982,141.412,243.903,141.58L243.903,141.58z"/>
	<path fill="#003359" d="M253.887,136.336c-0.782,0.105-1.566-0.4-1.692-1.248c-0.105-0.781,0.4-1.564,1.248-1.691
		c0.781-0.107,1.585,0.4,1.692,1.246C255.24,135.49,254.689,136.23,253.887,136.336L253.887,136.336z"/>
	<path fill="#003359" d="M199.874,155.559c-1.987,0-3.551-1.629-3.551-3.594c0-1.988,1.563-3.617,3.551-3.617
		c1.968,0,3.554,1.629,3.554,3.617C203.428,153.93,201.842,155.559,199.874,155.559L199.874,155.559z"/>
	<path fill="#003359" d="M208.84,157.715c-1.69,0-3.107-1.414-3.107-3.215c0-1.816,1.417-3.213,3.107-3.213
		c1.693,0,3.089,1.396,3.089,3.213C211.929,156.301,210.575,157.715,208.84,157.715L208.84,157.715z"/>
	<path fill="#003359" d="M218.254,158.266c-1.46,0-2.604-1.184-2.604-2.645c0-1.457,1.184-2.643,2.604-2.643
		c1.458,0,2.6,1.186,2.6,2.643C220.854,157.082,219.668,158.266,218.254,158.266L218.254,158.266z"/>
	<path fill="#003359" d="M228.17,157.885c-1.184,0-2.135-1.014-2.135-2.264c0-1.246,0.951-2.26,2.135-2.26
		c1.185,0,2.158,1.014,2.158,2.26C230.328,156.871,229.354,157.885,228.17,157.885L228.17,157.885z"/>
	<path fill="#003359" d="M238.617,155.961c-1.078,0-1.925-0.844-1.925-1.926c0-1.057,0.847-1.902,1.925-1.902
		c1.059,0,1.904,0.846,1.904,1.902C240.585,155.051,239.676,155.961,238.617,155.961L238.617,155.961z"/>
	<path fill="#003359" d="M249.382,152.471c-0.782,0-1.461-0.676-1.461-1.586c0-0.908,0.679-1.586,1.461-1.586
		c0.781,0,1.459,0.678,1.459,1.586C250.841,151.795,250.163,152.471,249.382,152.471L249.382,152.471z"/>
	<path fill="#003359" d="M203.3,165.668c-1.689-0.297-2.875-1.859-2.579-3.615c0.274-1.693,1.86-2.877,3.553-2.604
		c1.692,0.299,2.876,1.861,2.58,3.617C206.578,164.758,204.991,165.941,203.3,165.668L203.3,165.668z"/>
	<path fill="#003359" d="M212.437,167.697c-1.396-0.232-2.369-1.521-2.137-2.939c0.233-1.416,1.523-2.367,2.94-2.137
		c1.396,0.213,2.367,1.525,2.137,2.92C215.145,166.957,213.854,167.91,212.437,167.697L212.437,167.697z"/>
	<path fill="#003359" d="M222.376,168.926c-1.185-0.172-1.988-1.291-1.818-2.475c0.169-1.186,1.312-2.031,2.495-1.799
		c1.185,0.17,1.967,1.289,1.797,2.475C224.681,168.311,223.561,169.094,222.376,168.926L222.376,168.926z"/>
	<path fill="#003359" d="M233.033,168.713c-1.076-0.168-1.817-1.184-1.648-2.262c0.169-1.08,1.184-1.799,2.199-1.629
		c1.079,0.168,1.819,1.184,1.65,2.24C235.106,168.143,234.093,168.883,233.033,168.713L233.033,168.713z"/>
	<path fill="#003359" d="M244.072,166.895c-0.78-0.105-1.353-0.889-1.226-1.691c0.105-0.783,0.889-1.354,1.691-1.227
		c0.784,0.105,1.353,0.887,1.228,1.691C245.658,166.514,244.919,167.062,244.072,166.895L244.072,166.895z"/>
	<path fill="#DC3C26" d="M122.834,151.668c-0.735-1.861,0.169-3.934,2.029-4.674c1.862-0.74,3.892,0.17,4.627,2.031
		c0.729,1.859-0.169,3.953-2.03,4.672C125.6,154.439,123.569,153.529,122.834,151.668L122.834,151.668z"/>
	<path fill="#DC3C26" d="M123.114,142.533c-0.788-1.969,0.227-4.23,2.199-5.014c1.978-0.781,4.23,0.232,5.023,2.201
		c0.788,1.967-0.227,4.229-2.2,5.01C126.16,145.535,123.908,144.52,123.114,142.533L123.114,142.533z"/>
	<path fill="#DC3C26" d="M124.298,160.867c-0.618-1.629,0.17-3.447,1.751-4.061c1.58-0.613,3.441,0.168,4.06,1.797
		c0.618,1.648-0.169,3.449-1.751,4.061C126.725,163.236,124.923,162.453,124.298,160.867L124.298,160.867z"/>
	<path fill="#9E1C20" d="M122.892,180.09c-0.168-1.057,0.508-2.072,1.576-2.24c1.073-0.17,2.088,0.506,2.257,1.562
		c0.169,1.08-0.508,2.096-1.581,2.264C124.077,181.91,123.061,181.168,122.892,180.09L122.892,180.09z"/>
	<path fill="#DC3C26" d="M127.174,169.834c-0.508-1.289,0.117-2.812,1.47-3.32c1.296-0.508,2.818,0.105,3.326,1.459
		c0.508,1.291-0.111,2.812-1.465,3.322C129.151,171.801,127.682,171.125,127.174,169.834L127.174,169.834z"/>
	<path fill="#E1AD26" d="M131.631,159.748c-0.734-1.25-0.28-2.836,0.904-3.555c1.185-0.74,2.818-0.338,3.553,0.889
		c0.73,1.246,0.281,2.834-0.903,3.553C133.941,161.373,132.366,160.973,131.631,159.748L131.631,159.748z"/>
	<path fill="#E1AD26" d="M132.197,149.637c-1.073-1.859-0.455-4.229,1.354-5.287c1.803-1.076,4.23-0.465,5.298,1.396
		c1.073,1.861,0.454,4.23-1.354,5.309C135.633,152.133,133.265,151.498,132.197,149.637L132.197,149.637z"/>
	<path fill="#634DA0" d="M118.435,190.537c-0.396-0.742-0.168-1.65,0.507-2.029c0.736-0.402,1.634-0.17,2.03,0.508
		c0.397,0.719,0.17,1.627-0.508,2.029C119.731,191.488,118.832,191.258,118.435,190.537L118.435,190.537z"/>
	<path fill="#003359" d="M207.149,176.029c-1.142-0.443-1.648-1.734-1.184-2.877c0.444-1.119,1.733-1.627,2.812-1.184
		c1.077,0.465,1.629,1.756,1.184,2.877C209.518,175.986,208.206,176.496,207.149,176.029L207.149,176.029z"/>
	<path fill="#003359" d="M217.513,178.355c-1.015-0.4-1.459-1.586-1.059-2.537c0.38-0.973,1.523-1.48,2.539-1.078
		c1.014,0.4,1.458,1.586,1.056,2.537C219.668,178.23,218.527,178.736,217.513,178.355L217.513,178.355z"/>
	<path fill="#003359" d="M228.742,179.201c-0.74-0.338-1.121-1.184-0.782-1.924c0.338-0.74,1.184-1.119,1.903-0.781
		c0.739,0.338,1.141,1.184,0.803,1.902C230.328,179.139,229.482,179.477,228.742,179.201L228.742,179.201z"/>
	<path fill="#003359" d="M202.285,180.09c0.17-1.057-0.507-2.072-1.564-2.24c-1.078-0.17-2.093,0.506-2.263,1.562
		c-0.169,1.08,0.507,2.096,1.586,2.264C201.102,181.91,202.116,181.168,202.285,180.09L202.285,180.09z"/>
	<path fill="#003359" d="M198.014,169.834c0.507-1.289-0.127-2.812-1.48-3.32c-1.29-0.508-2.812,0.105-3.321,1.459
		c-0.506,1.291,0.107,2.812,1.461,3.322C196.025,171.801,197.507,171.125,198.014,169.834L198.014,169.834z"/>
	<path fill="#003359" d="M193.552,159.748c0.739-1.25,0.275-2.836-0.907-3.555c-1.188-0.74-2.814-0.338-3.556,0.889
		c-0.72,1.246-0.275,2.834,0.909,3.553C191.246,161.373,192.812,160.973,193.552,159.748L193.552,159.748z"/>
	<path fill="#003359" d="M192.981,149.637c1.077-1.859,0.466-4.229-1.354-5.287c-1.859-1.076-4.229-0.465-5.288,1.396
		c-1.076,1.861-0.464,4.23,1.355,5.309C189.555,152.133,191.924,151.498,192.981,149.637L192.981,149.637z"/>
	<path fill="#003359" d="M206.748,190.537c0.401-0.742,0.168-1.65-0.508-2.029c-0.739-0.402-1.629-0.17-2.03,0.508
		c-0.402,0.719-0.169,1.627,0.509,2.029C205.457,191.488,206.347,191.258,206.748,190.537L206.748,190.537z"/>
	<path fill="#003359" d="M218.254,187.492c0.399-0.74,0.168-1.65-0.51-2.031c-0.74-0.4-1.628-0.168-2.03,0.508
		c-0.401,0.719-0.168,1.631,0.509,2.031C216.9,188.443,217.809,188.209,218.254,187.492L218.254,187.492z"/>
</g>
<g>
	<g>
		<g>

				<linearGradient id="SVGID_2_" gradientUnits="userSpaceOnUse" x1="7224.9375" y1="-5254.0938" x2="8071.8281" y2="-5254.0938" gradientTransform="matrix(0.0521 0 0 -0.0521 -237.3438 -177.9163)">
				<stop  offset="0" style="stop-color:#FFF33B"/>
				<stop  offset="0.0303" style="stop-color:#F6C536"/>
				<stop  offset="0.0626" style="stop-color:#EE9B31"/>
				<stop  offset="0.0957" style="stop-color:#E8792D"/>
				<stop  offset="0.1291" style="stop-color:#E35E2A"/>
				<stop  offset="0.1631" style="stop-color:#DF4B28"/>
				<stop  offset="0.198" style="stop-color:#DD4026"/>
				<stop  offset="0.2352" style="stop-color:#DC3C26"/>
				<stop  offset="0.5261" style="stop-color:#F3903F"/>
				<stop  offset="0.7747" style="stop-color:#6D4EA0"/>
				<stop  offset="1" style="stop-color:#6EB043"/>
			</linearGradient>
			<path id="SVGID_1_" fill="url(#SVGID_2_)" d="M164.22,103.853c-0.719,0.909-1.521,1.628-2.369,2.136
				c-0.783,0.507-1.628,0.846-2.474,1.079c-1.972,0.443-3.891,0.402-5.415-0.233c-0.903-0.338-1.633-0.846-2.257-1.523
				c-0.619-0.612-1.126-1.396-1.522-2.241c-0.391-0.846-0.56-1.818-0.56-2.829c0-1.634,0.338-3.383,0.957-5.186
				c0.618-1.803,1.522-3.554,2.707-5.134c1.126-1.576,2.538-2.876,4.171-3.891c1.582-1.015,3.384-1.522,5.241-1.522
				c0.803,0,1.585,0.116,2.43,0.285c0.848,0.17,1.63,0.45,2.37,0.847c0.739,0.391,1.416,0.898,1.924,1.575
				c0.509,0.624,0.953,1.411,1.227,2.316l-4.44,10.88C165.637,101.759,164.96,102.943,164.22,103.853 M180.187,106.666
				c-0.952,1.311-2.094,2.537-3.384,3.68c-1.29,1.12-2.707,2.135-4.23,2.98c-1.521,0.847-3.213,1.523-4.97,1.967
				c-1.733,0.466-3.551,0.74-5.456,0.74c-2.881,0-5.587-0.443-8.184-1.289c-2.537-0.846-4.847-2.156-6.767-3.85
				c-1.918-1.692-3.494-3.827-4.625-6.364c-1.127-2.539-1.692-5.472-1.692-8.798c0-2.765,0.565-5.414,1.639-7.782
				c1.068-2.426,2.591-4.51,4.452-6.317c1.918-1.804,4.176-3.215,6.714-4.283c2.591-1.016,5.414-1.581,8.4-1.581
				c2.645,0,5.183,0.396,7.507,1.184c2.307,0.789,4.274,1.919,5.966,3.383c1.648,1.413,3.001,3.215,3.89,5.188
				c0.974,2.03,1.419,4.287,1.419,6.656c0,2.141-0.402,4.171-1.186,5.979c-0.782,1.861-1.757,3.495-2.939,4.785
				c-1.184,1.354-2.475,2.433-3.829,3.172c-1.353,0.783-2.705,1.121-3.954,1.121c-0.719,0-1.289-0.169-1.626-0.444
				c-0.34-0.296-0.572-0.676-0.615-1.141c-0.062-0.507,0-1.185,0.169-1.861c0.213-0.719,0.509-1.565,0.848-2.411l7.211-17.77h-2.138
				l-1.353,3.495c-0.634-1.354-1.693-2.426-3.108-3.215c-1.629-0.904-3.554-1.411-5.646-1.411c-2.307,0-4.395,0.566-6.308,1.691
				c-1.861,1.131-3.5,2.596-4.854,4.347c-1.295,1.744-2.368,3.664-3.098,5.693c-0.735,2.031-1.073,4.061-1.073,5.979
				c0,1.232,0.227,2.416,0.676,3.558c0.45,1.058,1.074,2.073,1.861,2.876c0.788,0.782,1.75,1.459,2.818,1.903
				c2.368,1.078,5.303,0.909,8.179-0.042c1.354-0.465,2.538-1.248,3.658-2.432c0.065,0.782,0.402,1.458,0.974,2.03
				c0.782,0.782,1.861,1.12,3.215,1.12c1.565,0,3.215-0.444,4.905-1.353c1.628-0.888,3.151-2.136,4.505-3.658
				c1.354-1.523,2.474-3.383,3.319-5.414s1.312-4.288,1.312-6.657c0-2.818-0.571-5.355-1.649-7.666
				c-1.058-2.316-2.582-4.229-4.506-5.811c-1.859-1.581-4.123-2.818-6.661-3.664c-2.537-0.846-5.244-1.301-8.058-1.301
				c-3.154,0-6.148,0.566-8.966,1.64c-2.818,1.067-5.303,2.647-7.386,4.567c-2.088,1.915-3.78,4.282-5.022,6.936
				c-1.237,2.649-1.86,5.584-1.86,8.74c0,3.833,0.676,7.212,2.03,9.982c1.354,2.812,3.161,5.139,5.303,6.937
				c2.199,1.797,4.679,3.151,7.444,3.996c2.766,0.847,5.583,1.312,8.458,1.312c1.968,0,3.955-0.297,5.858-0.741
				c1.924-0.507,3.785-1.248,5.541-2.135c1.735-0.974,3.384-2.095,4.843-3.385c1.459-1.354,2.77-2.833,3.785-4.462l0.338-0.571
				h-2.325L180.187,106.666L180.187,106.666z"/>
		</g>
	</g>
</g>
<g>
	<path d="M122.268,199.609c0-0.781,0.116-1.459,0.338-2.031c0.169-0.4,0.455-0.781,0.735-1.076c0.28-0.277,0.677-0.551,1.015-0.721
		c0.507-0.232,1.074-0.338,1.692-0.338c1.184,0,2.087,0.338,2.817,1.059c0.677,0.738,1.074,1.754,1.074,3.045
		c0,1.311-0.339,2.262-1.074,3c-0.677,0.721-1.633,1.061-2.76,1.061c-1.184,0-2.146-0.34-2.824-1.061
		C122.606,201.809,122.268,200.857,122.268,199.609z M123.908,199.547c0,0.908,0.221,1.586,0.618,2.029
		c0.397,0.467,0.957,0.678,1.581,0.678c0.619,0,1.185-0.211,1.575-0.678c0.397-0.443,0.625-1.121,0.625-2.072
		c0-0.91-0.228-1.586-0.625-2.029c-0.391-0.467-0.898-0.678-1.575-0.678c-0.676,0-1.184,0.211-1.581,0.678
		C124.077,197.98,123.908,198.658,123.908,199.547z"/>
	<path d="M131.182,203.5v-7.889h2.591c0.962,0,1.639,0.043,1.92,0.107c0.449,0.105,0.845,0.402,1.126,0.783
		c0.285,0.4,0.454,0.908,0.454,1.52c0,0.51-0.116,0.912-0.286,1.248c-0.168,0.34-0.391,0.572-0.677,0.783
		c-0.28,0.232-0.56,0.34-0.846,0.402c-0.392,0.064-0.957,0.107-1.634,0.107h-1.073v3.002h-1.576V203.5z M132.757,196.902v2.264
		h0.904c0.619,0,1.074-0.064,1.242-0.127c0.223-0.041,0.392-0.211,0.508-0.381c0.111-0.17,0.17-0.402,0.17-0.637
		c0-0.273-0.117-0.506-0.286-0.717c-0.169-0.168-0.392-0.297-0.619-0.338c-0.169-0.064-0.566-0.064-1.126-0.064H132.757z"/>
	<path d="M138.568,203.5v-7.889h5.862v1.355h-4.282v1.732h4.002v1.354h-4.002v2.158h4.452v1.354h-6.032V203.5z"/>
	<path d="M145.954,203.5v-7.889h1.581l3.272,5.287v-5.287h1.464v7.889h-1.581l-3.214-5.182v5.182H145.954z"/>
	<path d="M156.611,200.963l1.581-0.17c0.111,0.508,0.281,0.91,0.567,1.121c0.279,0.234,0.676,0.402,1.184,0.402
		c0.506,0,0.898-0.105,1.189-0.34c0.273-0.23,0.379-0.443,0.379-0.781c0-0.168-0.041-0.338-0.167-0.465
		c-0.106-0.105-0.277-0.211-0.557-0.338c-0.168-0.043-0.623-0.168-1.3-0.34c-0.847-0.211-1.465-0.443-1.803-0.783
		c-0.508-0.441-0.735-0.951-0.735-1.584c0-0.381,0.117-0.783,0.338-1.121c0.228-0.34,0.566-0.613,1.015-0.783
		c0.456-0.17,0.962-0.297,1.581-0.297c1.015,0,1.756,0.234,2.262,0.68c0.509,0.463,0.783,1.014,0.783,1.754l-1.585,0.062
		c-0.042-0.402-0.212-0.676-0.445-0.908c-0.227-0.17-0.565-0.275-1.015-0.275s-0.846,0.105-1.074,0.275
		c-0.169,0.105-0.279,0.275-0.279,0.506c0,0.17,0.059,0.34,0.229,0.51c0.221,0.168,0.676,0.338,1.463,0.506
		c0.783,0.168,1.354,0.404,1.756,0.572c0.38,0.168,0.677,0.443,0.888,0.783c0.232,0.336,0.337,0.781,0.337,1.246
		c0,0.443-0.104,0.889-0.38,1.291c-0.295,0.4-0.634,0.676-1.078,0.91c-0.442,0.168-1.015,0.273-1.749,0.273
		c-1.016,0-1.745-0.232-2.311-0.676C157.067,202.486,156.728,201.809,156.611,200.963z"/>
	<path d="M164.113,199.609c0-0.781,0.106-1.459,0.339-2.031c0.171-0.4,0.444-0.781,0.739-1.076c0.275-0.277,0.678-0.551,1.017-0.721
		c0.507-0.232,1.058-0.338,1.691-0.338c1.185,0,2.072,0.338,2.812,1.059c0.678,0.738,1.078,1.754,1.078,3.045
		c0,1.311-0.338,2.262-1.078,3c-0.74,0.721-1.628,1.061-2.771,1.061c-1.183,0-2.134-0.34-2.812-1.061
		C164.452,201.809,164.113,200.857,164.113,199.609z M165.743,199.547c0,0.908,0.232,1.586,0.635,2.029
		c0.38,0.467,0.952,0.678,1.562,0.678c0.636,0,1.185-0.211,1.587-0.678c0.403-0.443,0.614-1.121,0.614-2.072
		c0-0.91-0.211-1.586-0.614-2.029c-0.402-0.467-0.908-0.678-1.587-0.678c-0.675,0-1.183,0.211-1.562,0.678
		C165.976,197.98,165.743,198.658,165.743,199.547z"/>
	<path d="M173.018,195.611h1.586v4.273c0,0.678,0,1.143,0.063,1.354c0.042,0.338,0.211,0.57,0.507,0.805
		c0.275,0.168,0.613,0.273,1.06,0.273c0.464,0,0.802-0.105,1.014-0.273c0.232-0.17,0.401-0.404,0.401-0.678
		c0-0.297,0.063-0.74,0.063-1.354v-4.4h1.565v4.168c0,0.951-0.043,1.629-0.104,2.029c-0.107,0.402-0.235,0.738-0.444,1.016
		c-0.234,0.275-0.572,0.506-0.975,0.613c-0.381,0.17-0.887,0.232-1.521,0.232c-0.721,0-1.355-0.105-1.736-0.273
		c-0.401-0.17-0.677-0.402-0.908-0.678c-0.234-0.297-0.401-0.57-0.444-0.91c-0.127-0.443-0.17-1.121-0.17-2.029v-4.168H173.018z"/>
	<path d="M181.032,203.5v-7.889h3.383c0.848,0,1.46,0.043,1.861,0.213c0.402,0.168,0.679,0.4,0.91,0.74
		c0.211,0.338,0.339,0.783,0.339,1.248c0,0.613-0.17,1.057-0.509,1.457c-0.338,0.402-0.846,0.615-1.586,0.742
		c0.339,0.213,0.614,0.443,0.846,0.676c0.232,0.211,0.509,0.678,0.91,1.289l0.952,1.523h-1.862l-1.184-1.754
		c-0.403-0.613-0.678-1.016-0.847-1.184c-0.168-0.17-0.337-0.277-0.506-0.338c-0.169-0.043-0.445-0.105-0.783-0.105h-0.339v3.318
		h-1.586V203.5z M182.66,198.934h1.186c0.803,0,1.247-0.064,1.479-0.105c0.212-0.066,0.341-0.17,0.445-0.34
		c0.105-0.17,0.169-0.338,0.169-0.635c0-0.275-0.063-0.506-0.233-0.613c-0.169-0.104-0.338-0.273-0.612-0.338
		c-0.106,0-0.509,0-1.184,0h-1.249V198.934z"/>
	<path d="M194.122,200.625l1.566,0.508c-0.212,0.844-0.614,1.521-1.187,1.924c-0.549,0.381-1.225,0.613-2.071,0.613
		c-1.078,0-1.925-0.34-2.601-1.076c-0.677-0.721-1.017-1.695-1.017-2.922c0-1.311,0.34-2.367,1.017-3.107
		c0.676-0.74,1.587-1.08,2.708-1.08c0.949,0,1.753,0.297,2.367,0.848c0.338,0.338,0.612,0.846,0.783,1.48l-1.566,0.381
		c-0.126-0.381-0.295-0.719-0.57-0.953c-0.274-0.232-0.677-0.338-1.08-0.338c-0.548,0-1.055,0.234-1.395,0.613
		c-0.339,0.402-0.571,1.143-0.571,2.031c0,1.016,0.17,1.691,0.571,2.156c0.34,0.445,0.847,0.613,1.395,0.613
		c0.468,0,0.806-0.105,1.08-0.402C193.784,201.576,193.996,201.195,194.122,200.625z"/>
	<path d="M197.042,203.5v-7.889h5.877v1.355h-4.291v1.732h3.995v1.354h-3.995v2.158h4.46v1.354h-6.046V203.5z"/>
</g>
<g>
	<path d="M130.844,214.393l2.252,0.717c-0.339,1.25-0.899,2.201-1.745,2.836c-0.793,0.613-1.808,0.889-3.045,0.889
		c-1.522,0-2.765-0.51-3.78-1.566c-1.015-1.078-1.465-2.496-1.465-4.293c0-1.926,0.508-3.383,1.465-4.463
		c0.957-1.057,2.31-1.564,3.892-1.564c1.411,0,2.537,0.381,3.441,1.227c0.507,0.508,0.898,1.184,1.184,2.156l-2.315,0.551
		c-0.111-0.613-0.391-1.057-0.846-1.395c-0.449-0.338-0.957-0.508-1.575-0.508c-0.846,0-1.522,0.273-2.089,0.889
		c-0.507,0.635-0.787,1.584-0.787,3.002c0,1.459,0.279,2.475,0.787,3.09c0.508,0.633,1.185,0.908,2.03,0.908
		c0.619,0,1.126-0.17,1.581-0.572C130.336,215.852,130.616,215.238,130.844,214.393z"/>
	<path d="M134.619,212.975c0-1.184,0.169-2.135,0.507-2.939c0.285-0.549,0.624-1.119,1.074-1.566
		c0.448-0.465,0.957-0.803,1.464-1.014c0.735-0.295,1.523-0.465,2.485-0.465c1.692,0,3.045,0.508,4.06,1.586
		c1.016,1.078,1.523,2.537,1.523,4.398s-0.508,3.32-1.523,4.336c-1.015,1.014-2.368,1.586-4.06,1.586
		c-1.691,0-3.045-0.508-4.061-1.586C135.126,216.252,134.619,214.771,134.619,212.975z M136.987,212.869
		c0,1.289,0.286,2.305,0.904,2.982c0.618,0.676,1.354,1.016,2.311,1.016c0.961,0,1.691-0.34,2.257-1.016
		c0.619-0.678,0.903-1.693,0.903-2.982c0-1.311-0.284-2.326-0.845-2.939c-0.566-0.613-1.354-0.951-2.315-0.951
		c-0.958,0-1.745,0.338-2.311,0.951C137.272,210.543,136.987,211.559,136.987,212.869z"/>
	<path d="M147.535,218.621v-11.504h3.495l2.088,7.824l2.088-7.824h3.495v11.504h-2.141v-9.094l-2.257,9.094h-2.257l-2.252-9.094
		v9.094H147.535z"/>
	<path d="M168.344,214.393l2.263,0.717c-0.338,1.25-0.91,2.201-1.756,2.836c-0.781,0.613-1.796,0.889-3.044,0.889
		c-1.523,0-2.771-0.51-3.785-1.566c-0.954-1.078-1.459-2.496-1.459-4.293c0-1.926,0.505-3.383,1.459-4.463
		c1.014-1.057,2.326-1.564,3.89-1.564c1.419,0,2.539,0.381,3.448,1.227c0.506,0.508,0.909,1.184,1.184,2.156l-2.306,0.551
		c-0.125-0.613-0.401-1.057-0.845-1.395c-0.465-0.338-0.974-0.508-1.586-0.508c-0.847,0-1.523,0.273-2.093,0.889
		c-0.511,0.635-0.784,1.584-0.784,3.002c0,1.459,0.273,2.475,0.784,3.09c0.506,0.633,1.183,0.908,2.029,0.908
		c0.635,0,1.141-0.17,1.587-0.572C167.836,215.852,168.112,215.238,168.344,214.393z"/>
	<path d="M182.957,218.621h-2.538l-1.016-2.6h-4.63l-0.953,2.6h-2.495l4.462-11.504h2.475L182.957,218.621z M178.662,214.096
		l-1.583-4.271l-1.566,4.271H178.662z"/>
	<path d="M183.571,214.9l2.263-0.232c0.104,0.74,0.38,1.291,0.845,1.691c0.444,0.4,0.952,0.508,1.69,0.508
		c0.72,0,1.292-0.17,1.693-0.443c0.379-0.342,0.55-0.68,0.55-1.145c0-0.273-0.042-0.508-0.211-0.676
		c-0.169-0.17-0.466-0.34-0.847-0.508c-0.296-0.105-0.909-0.275-1.86-0.508c-1.248-0.275-2.158-0.676-2.602-1.121
		c-0.741-0.613-1.078-1.418-1.078-2.305c0-0.57,0.169-1.143,0.507-1.65c0.34-0.508,0.803-0.887,1.417-1.184
		c0.613-0.273,1.354-0.381,2.263-0.381c1.46,0,2.537,0.338,3.256,0.953c0.741,0.611,1.144,1.457,1.144,2.537l-2.327,0.105
		c-0.104-0.551-0.338-1.016-0.612-1.291c-0.339-0.273-0.781-0.4-1.46-0.4c-0.676,0-1.185,0.127-1.586,0.4
		c-0.233,0.17-0.401,0.402-0.401,0.74c0,0.275,0.125,0.51,0.338,0.678c0.297,0.211,1.015,0.508,2.157,0.781
		c1.121,0.277,1.967,0.572,2.474,0.846c0.572,0.275,0.952,0.678,1.289,1.186c0.297,0.508,0.468,1.121,0.468,1.797
		c0,0.68-0.171,1.312-0.573,1.861c-0.4,0.572-0.909,1.014-1.585,1.312c-0.677,0.273-1.522,0.381-2.474,0.381
		c-1.459,0-2.603-0.34-3.321-1.018C184.246,217.141,183.74,216.189,183.571,214.9z"/>
	<path d="M197.507,218.621v-9.537h-3.448v-1.967h9.136v1.967h-3.383v9.537H197.507z"/>
</g>
</svg>
